/* XPM */
static char *b7f73b2987484a67bcea1e2b944fc9f0[] = {
/* columns rows colors chars-per-pixel */
"60 60 249 2 ",
"   c #010202",
".  c #0D0502",
"X  c #0C0A03",
"o  c #0A050A",
"O  c #050A0C",
"+  c #0E0E0E",
"@  c #05040C",
"#  c #140400",
"$  c #1B0300",
"%  c #150D04",
"&  c #1B0C02",
"*  c #140E0C",
"=  c #180B0B",
"-  c #0E1206",
";  c #0D120D",
":  c #081603",
">  c #121105",
",  c #1B1104",
"<  c #11110C",
"1  c #1B130C",
"2  c #19190F",
"3  c #050D14",
"4  c #0C0D12",
"5  c #0D0F1B",
"6  c #120E12",
"7  c #110D1A",
"8  c #190B12",
"9  c #0D1113",
"0  c #0A121B",
"q  c #08141B",
"w  c #101010",
"e  c #1A1313",
"r  c #1B1913",
"t  c #13151A",
"y  c #18181B",
"u  c #230300",
"i  c #220C00",
"p  c #2A0B00",
"a  c #200609",
"s  c #320B00",
"d  c #231301",
"f  c #20160A",
"g  c #251906",
"h  c #3A1400",
"j  c #371602",
"k  c #241B14",
"l  c #0C0E22",
"z  c #080025",
"x  c #140B27",
"c  c #091222",
"v  c #181724",
"b  c #120B32",
"n  c #201324",
"m  c #481900",
"M  c #571900",
"N  c #4D2300",
"B  c #442307",
"V  c #522D06",
"C  c #612F00",
"Z  c #6C3809",
"A  c #743A11",
"S  c #423129",
"D  c #5B4410",
"F  c #7A4508",
"G  c #6B4716",
"H  c #744724",
"J  c #724D2F",
"K  c #775D46",
"L  c #C70F00",
"P  c #D31601",
"I  c #E40700",
"U  c #E41E04",
"Y  c #D63C00",
"T  c #D52400",
"R  c #F22B0C",
"E  c #85551F",
"W  c #915112",
"Q  c #88641A",
"!  c #B26D13",
"~  c #865724",
"^  c #96592A",
"/  c #A15B27",
"(  c #986836",
")  c #95743D",
"_  c #946428",
"`  c #B46529",
"'  c #B57C3C",
"]  c #A46C31",
"[  c #DC5602",
"{  c #FF4A02",
"}  c #E95702",
"|  c #F25402",
" . c #FC5203",
".. c #F35C01",
"X. c #FC5B02",
"o. c #FE560C",
"O. c #F75D0A",
"+. c #DE6904",
"@. c #D97B08",
"#. c #D97B18",
"$. c #C97210",
"%. c #EB6402",
"&. c #EC6C01",
"*. c #E96909",
"=. c #F46401",
"-. c #FA6401",
";. c #F26B02",
":. c #FB6B02",
">. c #F36C0B",
",. c #FC6C0A",
"<. c #F9640B",
"1. c #E47501",
"2. c #EA7401",
"3. c #E57C00",
"4. c #EB7B02",
"5. c #E57D0A",
"6. c #EB7A0B",
"7. c #F37302",
"8. c #FA7402",
"9. c #F37C01",
"0. c #FC7B00",
"q. c #FC730C",
"w. c #FB7C0D",
"e. c #F2790C",
"r. c #E56E14",
"t. c #FC6A16",
"y. c #E77914",
"u. c #F97A14",
"i. c #CE7628",
"p. c #DE7C28",
"a. c #D67E36",
"s. c #E97B25",
"d. c #F87C25",
"f. c #FF763B",
"g. c #9A7B42",
"h. c #A37346",
"j. c #B27A47",
"k. c #A38434",
"l. c #DD8707",
"z. c #D98A17",
"x. c #D69216",
"c. c #DF9407",
"v. c #E58502",
"b. c #ED8502",
"n. c #EC8B01",
"m. c #EC830B",
"M. c #E68A09",
"N. c #F48401",
"B. c #FD8502",
"V. c #F48C02",
"C. c #FC8C02",
"Z. c #FD850B",
"A. c #F38B0B",
"S. c #FC8B0B",
"D. c #F4830D",
"F. c #EB9300",
"G. c #EC9C01",
"H. c #E8950B",
"J. c #F59202",
"K. c #FC9202",
"L. c #F19B00",
"P. c #FA9B01",
"I. c #F4920A",
"U. c #FD930B",
"Y. c #F99A0E",
"T. c #F29D0B",
"R. c #E68815",
"E. c #F58B12",
"W. c #FD8B12",
"Q. c #FF831D",
"!. c #FF8B1A",
"~. c #F78114",
"^. c #F39314",
"/. c #FF9313",
"(. c #F39B14",
"). c #FC9E11",
"_. c #FD971B",
"`. c #E7931F",
"'. c #EAA20B",
"]. c #F2A40D",
"[. c #F8A407",
"{. c #EBA714",
"}. c #F2A916",
"|. c #FBAB1C",
" X c #F8A816",
".X c #F7B21B",
"XX c #C98825",
"oX c #DC8826",
"OX c #C68738",
"+X c #DA8A38",
"@X c #D69A3D",
"#X c #D89021",
"$X c #E78727",
"%X c #F98825",
"&X c #E69829",
"*X c #E68A34",
"=X c #E5953C",
"-X c #FF943A",
";X c #FF9B28",
":X c #FBAC21",
">X c #FBA828",
",X c #FAB427",
"<X c #EAA33A",
"1X c #FFA837",
"2X c #BA884A",
"3X c #BB934C",
"4X c #B58A53",
"5X c #B08E61",
"6X c #C78D49",
"7X c #D88A44",
"8X c #C79858",
"9X c #D89A5A",
"0X c #C28654",
"qX c #E69948",
"wX c #E79A58",
"eX c #F59F4C",
"rX c #DCA747",
"tX c #ECA34C",
"yX c #ECAA44",
"uX c #F3A446",
"iX c #FFB344",
"pX c #EAA457",
"aX c #F8A459",
"sX c #EBB652",
"dX c #D59C6A",
"fX c #C39C75",
"gX c #D8A572",
"hX c #D2AF72",
"jX c #EDB864",
"kX c #F8B666",
"lX c #F8B574",
"zX c #EBB06B",
"xX c #F8CB75",
"cX c #B7AAA2",
"vX c #D8AF9B",
"bX c #EAAA81",
"nX c #E9B284",
"mX c #ECBB92",
"MX c #EBBFB2",
"NX c #F7CF9D",
"BX c #DAC8BA",
"VX c #EAC4B5",
"CX c #F9D8B3",
"ZX c #D5CCD5",
"AX c #CCCAD5",
"SX c #E8D2D6",
"DX c #E6CFC9",
"FX c #CECFEA",
"GX c #E0CDE0",
/* pixels */
"w w w w w w w w w w w w w w w < * < * * % % % % % % = * < ; ; ; ; ; ; ; 9 9 9 9 ; 9 ; ; < < * * < w w w w w w w w w w w ",
"w w w w w w w w w w w w w w w w < < < * * * * * * * * * < ; ; ; < < ; ; ; ; ; ; ; ; ; ; < < * * 6 w w w w w w w w w w w ",
"w w w w w w w w w w w w w w w 9 9 9 9 9 9 w w w w w w w 9 9 9 ; < < < < < ; ; ; ; ; ; 9 w w 6 6 w w w w w w w w w w w w ",
"w w w w w w w w w w w w w w w 9 9 9 9 9 9 9 9 9 9 9 9 9 9 9 9 ; < < < < < < < ; ; ; ; 9 9 9 9 9 w w w w w w w w w w w w ",
"w w w w w w w w w w w w w w w 9 9 9 9 9 9 9 9 9 9 9 9 9 9 ; ; < < < < < < < < < < < < 9 9 9 9 9 9 w w w w w w w w w w w ",
"w w w w w w w w w w w w w w w < ; ; ; 9 9 9 9 9 9 9 9 9 < < < < < < < < < < < > < < < w 9 9 9 9 9 w w w w w w w w w w w ",
"w w w w w w w w w w w w w w w < > % > < < w 9 9 9 9 w 6 * * * * 9 9 9 9 9 < < < * < 6 w 6 9 9 9 9 w w w w w w w w w w w ",
"w w w w w w w w w w w w w w w * % % % * * < 6 6 9 9 w 6 6 * * * 9 0 9 9 9 9 w 6 6 6 6 6 6 6 9 9 w w w w w w w w w w w w ",
"w w w w w w w w w w w w w w w * * % = * * 6 w 6 w 9 4 4 6 6 6 6 9 q 0 3 3 9 9 + w + 4 w 6 + + e w w w w w w w w w w w w ",
"w w w w w w w w w w w w w w w 6 * * * o + 6 w w 4 4 6 6 6 6 * + 9 t 9 9 4 9 t t w w w e e w * o 6 w w w w w w w w w w w ",
"w w w w w w w w w w w w w w w 9 t 4 t v y @ o e w < * * * * e 1 % X % > w w O   4 4 4 4 w w < * < w w w w w w w w w w w ",
"w w w w w w w w w w w w w w w 9 3 v 0 @ o r k & # & & & & $ $ $ i $ $ & & % e y 4 9 9 + o < 1 < < w w w w w w w w w w w ",
"w w w w w w w w w w w w w w w 9 0 3 O * , & $ u h m Z E ( ( ( ( ~ A N s u $ # * w t t 9 + + < > < w w w w w w w w w w w ",
"w w w w w w w w w w w w w w w 9 t 4 * f i p N F ' OX+XqXqXqXqXqX7XwX9Xj.H j & % + 4 9 0 9 + + < < w w w w w w w w w w w ",
"w w w w w w w w w w w w w w w <   r d $ j E 6XqXoXR.R.5.6.6.6.y.%Xp.i.7XgXfXK k e O O 9 0 + + < < w w w w w w w w w w w ",
"w w 9 ; ; ; < 6 6 6 9 9 9 9 w * k . $ G 2XqXoX@.5.9.B.C.C.B.9.2.1.#.+XwXmXCXBXcXS k X ; 0 3 + < < w w w w w w w w w w w ",
"6 9 ; ; ; ; * 6 8 6 t O 9 t   e # i Q rXx.l.E.1.N.Z.C.C.N.N.9.2.5.#.+XnXDXZXAXZXvXJ u f O 3 e 8 6 w w w w w w w w w w w ",
"6 9 ; ; ; ; * 6 8 4 4 q t 9 k # p _ @Xx.M.V.N.9.B.S.K.K.V.V.b.3.v.#.+XnXSXFXFXAXvXdXh.$ ; v o = 6 w w w w w w w w w w w ",
"6 9 9 ; ; ; * * 6 6 4 9 9 ; # u ^ qX&X@.J.C.4.C.I.Y.T.L.F.F.n.v.v.@.$XpXMXGXFXZXNX9X8X~ d w + y 6 w w w w w w w w w w w ",
"* < 9 9 9 9 < * * e 0 4 + k # H wX*X5.b.C.V.b.V.).].].G.F.F.F.n.v.m.m.*XbXVXSXSXCXOXi.zXG # X 9 w w w w w w w w w w w w ",
"% < 9 0 9 9 < < < + y 4 % d B 9X*Xy.A.K.b.V.J.v. X X].G.G.J.J.V.A.A.N.m.qXbXVXVXzXOX$.*X9XN . ; 9 w w w w w w w w w w w ",
"& > 9 0 0 9 ; < r   y y & $ ] tXR.A.C.C.V.V.n.F. X X}.'.L.P.K.C.V.A.B.N.R.=XdXgX6X+X#.$.eX' , ; ; w w w w w w w w w w w ",
"& % 6 l l 0 ; ; w o 4 e $ N pXoX^.V.b.N.K.V.n.L.|.|.}.].[.[.P.K.I.I.V.V.n.l.#XOX9XlX-Xr.y.qXV   ; w w w w w w w w w w w ",
"& % 7 l c 0 ; - X r + 1 u ] uXM.V.N.C.C.N.C.K.v.|.|.}.}.].[.[.P.Y.(.I.J.J.F.c.#XwXNXkX+.~.<X) % > w w w w w w w w w w w ",
"& % 7 l l 0 ; - - w + & h 9X$XA.B.B.B.B.B.B.B.V.(.:X,X,X.X}.}.'. XT.H.T.[.L.F.M.*XaX%Xu.e.$XhXg X + w w + + + w w w w w ",
"& * w l l 0 ; < ; w o & V pX`.V.B.C.B.B.B.B.B.S.I.:X,X>X>X{.}.}.].].{.'.G.L.P.).#.$Xr.u.e.$XzXD # + w w w + w w w w w w ",
"% * 6 0 5 9 < < < < % i ~ pXE.N.V.V.Z.Z.Z.Z.Z.C.n._.1X1XiX1X1X>X X X{.'.]. X).U.m.4.2.w.u.$XzX) # + w w w w w w w w w w ",
"* * 9 9 9 6 * * * * % & h.tXm.N.V.n.A.D.Z.Z.C.C.V.b.;X1X-X[ *.iX|..X.X}.:X>X_.N.U.N.B.Z.u.$XpX4X& + w w w w w w w w w w ",
"6 6 9 9 ; < * 6 6 * % & 2X=X6.N.n.F.A.A.A.S.C.C.K.B.u.[ Y T T o.S.|.,X:X(.^.A.N.V.N.N.N.D.$XtX8X& w w w w + w w w w w w ",
"6 6 ; ; < < * 8 8 6 , i 3X+X6.C.V.n.V.A.A.V.K.K.C./.%XY L U I L w.J.).(.A.A.A.S.N.B.N.9.E.$XtX8X& w w w w + + + w w w w ",
"7 4 ; ; > > * 8 7 8 , i 3X+Xm.B.B.B.B.C.C.C.K.K.V.N.-Xf.T I I R %XV.b.b.V.U.V.V.Z./.N.9.U.R.yX8X& w + + w w w w w w w w ",
"7 9 ; ; > * 6 8 6 * % i 2XoXD.B.B.B.B.B.C.C.C.K.K.N.Q.t.P R R U %XU.W.W.C.C.C.K.Z./.4.b.Y.R.yX8X& + + + w w w w w w w w ",
"6 w 9 9 w 6 * 6 t * 1 $ ] =X9.8.0.0.0.B.B.B.C.C.N.S.Z.w.w.Q.u.:.C.K./.S.N.C.C.C.C.C.3.v.(.z.kX4X# w e + + w w + w w w w ",
"< < 9 9 9 6 6 6 w X 1 $ _ eX1.0.0.0.0.0.B.B.B.C.S./.U.C.S.U.K.B.K.C.S.Z.C.C.C.C.U.9.3.n.H.<XkXh.# w e + + w w + w w w w ",
"< < 9 9 9 w 6 6 w + > $ F qX+.9.9.9.9.0.0.B.B.B.Z.Z.A.V.V.K.K.C.K.C.V.K.K.K.C.C.W.7.2.A.R.<XlXJ # w w + + w w + w w w w ",
"< < 9 9 9 w 6 6 4 w * & m OXy.2.e.7.7.8.0.0.B.B.S.S.A.I.I.V.C.K.B.K.K.J.J.J.U.W.q.7.7.E.`.@XnXB % w w + + w w + w w w w ",
"> < 9 9 9 w 6 6 + w o , u / =X+.>.>.7.8.8.0.0.N.C.V.J.J.I.A.S./.C.U.K.b.n.U./.~.>.=.0.S.&XjX5X& % w w + + w w + w w w w ",
"> > ; 9 9 w 6 6 + w + f # Z qX#.*.<.;.;.:.8.0.N.V.n.V.J.V.S.!.!.W.S.9.1.b._.!.7.,.%.B.^.&XxXJ . * w w w w w w w w w w w ",
"> > ; 9 9 9 * * 4 4 4 < & h ] *X*.-.-.-.<.>.7.4.N.V.J.C.C.W.Q.Q.w.8.&.&.e.~.w.&.7.7.V.H.sX3Xg X w w + w w w w w w w w w ",
"> > ; 9 9 9 * * w + 0 + f $ Z 7X>.:.-.X.O.<.=.&.7.9.9.9.0.0.q.:.:.%.%.q.q.;.;.7.&.U.(.x.xXD % + w w + w w w w w w w w w ",
"> > ; 9 9 w * * + t 3 4 r # s W y.8.=.-.<.O.| | } ..=.=.=.=.-.-.=.,.,.<.-.-.8.7.B.H.&XjXg.# k ; w w w w w w w w w w w w ",
"% > 9 9 9 9 * * < t 3 3 y # $ m i.r.*.>.<.X. . .o.o.X.X...=.=.:.8.=...,.q.8.7.4.F.x.jXhXi # X + w w w w w w w w w w w w ",
"% < 9 9 9 w * * * t 0 3 t e # u M ` *Xr.} X.X.{ { { {  ...=.;.;.;.=.:.:.:.%.9.Y.x.sXhX$ v x e w w w w w w w w w w w w w ",
"* * 9 9 9 w * % X w 0 0 0 t 1 i $ N / a.s.%.| X. .o.o.o.O.%.%.%.&.;.;.;.8.S.A.z.sXhX$ n b z v o < w w w w w w w w w w w ",
"* < 9 9 9 9 * % 1 + 0 q 3 4 < * e $ h E a.s.*.=...| | } } %.*.&.&.&.2.!.%XoX@XjXk.d 1 x b b 4 + < w w w w w w w w w w w ",
"* 6 9 0 9 w % % f * 3 q q 0 + + 9 w $ p Z ` p.s.r.*.*.*.%.*.>.u.2._._.z.qXlX8XH & % > @ l v * < < w w w w w w w w w w w ",
"6 6 0 0 9 w % % % * 4 q c 0 9 ; : : X $ p m A ` i.z.R.D.9.7.8.q.W.m.&XtX0XH j # g X > 2 o 4   > < w w w w w w w w w w w ",
"6 6 9 0 9 w * % . 1 t 3 3 3 4 ; : : ; o = a u s C F ! $.#.p.s.$X#.! W C s $ 8 6 > - > X w r > < < w w w w w w w w w w w ",
"6 w 9 9 9 w < * * < 9 9 9 9 9 ; ; ; ; 6 6 * = % $ & i p s j h h p i $ & & e e + < < < < < < < < < w w w w w w w w w w w ",
"w w w w w w w w w w w w w w w w w w w w w w w w + + + 9 + + + + 9 + + + w w w + w w w w w w w w w w w w w w w w w w w w ",
"w w w w w w w w w w w w w w w w w w w w w w w w w + + + + + + + w + + + w w + + w w w w w w w w w w w w w w w w w w w w ",
"w w w w w w w w w w w w w w w w w w w w w w w w + + + w w w e e w 6 w w + + + + w w w w w w w w w w w w w w w w w w w w ",
"w w w w w w w w w w w w w w w w w w w w w w w w w w w + + + + + w w w w + + + w w w w w w w w w w w w w w w w w w w w w ",
"w w w w w w w w w w w w w w w w w w w w w w w w w w w + + + + + w w w w + + + w w w w w w w w w w w w w w w w w w w w w ",
"w w w w w w w w w w w w w w w w w w w w w w w w + + w w w w w w w w w w w w w + w w w w w w w w w w w w w w w w w w w w ",
"w w w w w w w w w w w w w w w w w w w w w w w w w w w + + + + + w w + w w w w + w w w w w w w w w w w w w w w w w w w w ",
"w w w w w w w w w w w w w w w w w w w w w w w w w w w w w w w w w w w w w w w w w w w w w w w w w w w w w w w w w w w w ",
"w w w w w w w w w w w w w w w w w w w w w w w w w w w w w w w w w w w w w w w w w w w w w w w w w w w w w w w w w w w w ",
"w w w w w w w w w w w w w w w w w w w w w w w w w w w w w w w w w w w w w w w w w w w w w w w w w w w w w w w w w w w w ",
"w w w w w w w w w w w w w w w w w w w w w w w w w w w w w w w w w w w w w w w w w w w w w w w w w w w w w w w w w w w w "
};
