/* XPM */
static char *d44e3fa6afa84bc9b60c3ecf5e83f3a3[] = {
/* columns rows colors chars-per-pixel */
"60 60 256 2 ",
"   c #010102",
".  c #0B0101",
"X  c #020904",
"o  c #0C0A04",
"O  c #01030A",
"+  c #0A020A",
"@  c #02090A",
"#  c #0B0B0B",
"$  c #130201",
"%  c #1B0200",
"&  c #140A01",
"*  c #1B0B02",
"=  c #120309",
"-  c #1C1107",
";  c #020214",
":  c #0C0911",
">  c #1F0512",
",  c #230300",
"<  c #2A0300",
"1  c #230C00",
"2  c #2C0A02",
"3  c #320400",
"4  c #390901",
"5  c #2B1401",
"6  c #291807",
"7  c #341400",
"8  c #361B02",
"9  c #3B1904",
"0  c #2B1B12",
"q  c #311719",
"w  c #270812",
"e  c #3B2605",
"r  c #362617",
"t  c #312A27",
"y  c #470A00",
"u  c #421403",
"i  c #451B03",
"p  c #4A1802",
"a  c #551A01",
"s  c #511509",
"d  c #472506",
"f  c #582703",
"g  c #573407",
"h  c #462614",
"j  c #4C3417",
"k  c #553519",
"l  c #672A02",
"z  c #643707",
"x  c #763806",
"c  c #693A1A",
"v  c #753F17",
"b  c #4B3623",
"n  c #553A27",
"m  c #583C30",
"M  c #683925",
"N  c #723B27",
"B  c #4B1E25",
"V  c #69451A",
"C  c #784517",
"Z  c #75470C",
"A  c #55412D",
"S  c #6B4426",
"D  c #784B27",
"F  c #775129",
"G  c #674735",
"H  c #765537",
"J  c #735546",
"K  c #776351",
"L  c #823C00",
"P  c #9C580B",
"I  c #874A15",
"U  c #855317",
"Y  c #9A5B17",
"T  c #8C4B0A",
"R  c #A45A0A",
"E  c #A55C12",
"W  c #A85916",
"Q  c #B15E13",
"!  c #98631E",
"~  c #B7630E",
"^  c #A96417",
"/  c #B2631B",
"(  c #B86919",
")  c #BE711C",
"_  c #834D29",
"`  c #8B5629",
"'  c #985C26",
"]  c #855936",
"[  c #945939",
"{  c #814F34",
"}  c #AC5B25",
"|  c #9B6227",
" . c #996837",
".. c #916930",
"X. c #A66629",
"o. c #BB6B22",
"O. c #BC6D2A",
"+. c #B46B27",
"@. c #BD7324",
"#. c #BD742B",
"$. c #BA762A",
"%. c #A86A38",
"&. c #AA743B",
"*. c #BA7535",
"=. c #BC783C",
"-. c #B77639",
";. c #B46C33",
":. c #C36D1A",
">. c #CA6E1D",
",. c #C66C15",
"<. c #C4731C",
"1. c #CC731C",
"2. c #C8771A",
"3. c #D7791A",
"4. c #C96F0F",
"5. c #C46E24",
"6. c #C47323",
"7. c #CC7424",
"8. c #C3742B",
"9. c #CB752A",
"0. c #CB7B2B",
"q. c #C77A26",
"w. c #D27523",
"e. c #D57B28",
"r. c #C27533",
"t. c #C67C35",
"y. c #E47F2E",
"u. c #8A6548",
"i. c #9A6847",
"p. c #967245",
"a. c #927155",
"s. c #A56B45",
"d. c #AC734D",
"f. c #A97545",
"g. c #B77846",
"h. c #A67653",
"j. c #927563",
"k. c #8B5342",
"l. c #C67D47",
"z. c #D87442",
"x. c #DE871A",
"c. c #E6881B",
"v. c #EC911E",
"b. c #D4842D",
"n. c #DC832B",
"m. c #DB8C2D",
"M. c #D98527",
"N. c #C98438",
"B. c #D48434",
"V. c #D48B33",
"C. c #DD8C33",
"Z. c #DB8838",
"A. c #DD9234",
"S. c #DD933B",
"D. c #D6953C",
"F. c #CB8A32",
"G. c #EB8A25",
"H. c #E3842D",
"J. c #EB862B",
"K. c #E48B2C",
"L. c #EB8B2C",
"P. c #E78725",
"I. c #F28C2B",
"U. c #F38A27",
"Y. c #E7912F",
"T. c #EB932D",
"R. c #F49328",
"E. c #E48C33",
"W. c #EB8C34",
"Q. c #E58D3C",
"!. c #EB8C3B",
"~. c #E48538",
"^. c #F28D34",
"/. c #E49234",
"(. c #EB9134",
"). c #E39339",
"_. c #EB933B",
"`. c #E8993D",
"'. c #F39337",
"]. c #AE8648",
"[. c #B98655",
"{. c #BC9259",
"}. c #B58B4B",
"|. c #9B806A",
" X c #AE916B",
".X c #A59269",
"XX c #C88847",
"oX c #D68B47",
"OX c #CC9648",
"+X c #DC9443",
"@X c #DA9748",
"#X c #CC975A",
"$X c #D79857",
"%X c #C58A57",
"&X c #E58B47",
"*X c #EB9444",
"=X c #E39A45",
"-X c #E89747",
";X c #F39846",
":X c #E79956",
">X c #F59655",
",X c #EF8E4E",
"<X c #D8A757",
"1X c #D1AA50",
"2X c #E5A24C",
"3X c #ECA14E",
"4X c #E8A656",
"5X c #F5AB59",
"6X c #EAB35C",
"7X c #F4B25B",
"8X c #F7A54A",
"9X c #D19865",
"0X c #DAB768",
"qX c #D3AA6F",
"wX c #E9A961",
"eX c #E9BA67",
"rX c #FDBB6A",
"tX c #F6B866",
"yX c #E9BC77",
"uX c #FABB78",
"iX c #EEAA6C",
"pX c #DCC26D",
"aX c #FCC36E",
"sX c #F5C269",
"dX c #EDCD7D",
"fX c #E6C878",
"gX c #FDC573",
"hX c #F3CB7C",
"jX c #FCCB7C",
"kX c #F7C777",
"lX c #EBD17D",
"zX c #F4D17B",
"xX c #E1C76B",
"cX c #BDA287",
"vX c #D6B992",
"bX c #F0BE83",
"nX c #DCC686",
"mX c #DED493",
"MX c #DEC898",
"NX c #ECCC85",
"BX c #E7C988",
"VX c #F2CC83",
"CX c #FDCE82",
"ZX c #F7C988",
"AX c #EBD284",
"SX c #E6D38B",
"DX c #EBD48B",
"FX c #E7D283",
"GX c #F3D382",
"HX c #F9D689",
"JX c #E9CA97",
"KX c #EBD698",
"LX c #FCDA98",
"PX c #F8CF99",
"IX c #FFE19E",
"UX c #F5DAAF",
/* pixels */
"                                .   X O O ; O   % , 7 7 9 % $ % < 4 4 y y x W Y [ [ h % . O O @ @                       ",
"                                .   X O O ; O . 1 j D S V d 1 $ 3 M s.g.*.r.oXoX-.` u % * # @ O O                       ",
"                                . .   O O O   * h ] h.[.[.p.D z v %.XX@XS.A.).V.8.X.C 9 $ .                 X X         ",
"                                . .     O   & h H {.qXZXZXuX#X#X$X4XV.V./.T.T.T.M.=X4X` 7 % . #                         ",
"                                . .       . * k ..qXuXuXtX4XXXoXb._.K.K.G.c.c.v.x.K.3X-.z 9 $ . X O O                   ",
"                                .         . % g  .uXCX5XQ.Q.Z.;XM.(.(.(.T.G.R.R.R.x.m.@Xf.c , $ + O O                   ",
"                                  +     . . 2 Z Y 7XrXn.y.J.W.;X'.W.n.E.~.E.^.G.G.c.M.@X%XM < $     O                   ",
"                                O +     & 5 g  .P S.8XP.'.^.J.W.!.~.&X>X:X&X;XK.L.'.C.=X9Xk.B >                         ",
"                          X     O +   & * e {.}.^ b./.P.L.^.I.W.&XoXoXl.g.l.oX&X;XM.m.oX9Xi.J q .       X               ",
"                          X X   O O   $ j ] #X$Xq.C.(.L.L.L.L.!.8.' x a a x X.t.b.).`.+X%Xv u , - o                     ",
"                          X X   X o & $ F {.XXoX`./.(.Y.K.E.`.3XuX#X` a 4 f I ^ S.m.).V.$Xl 9 9 $             X     O O ",
"                                  . & 8  .$XN.C._.K.K./.m.`.7XtXCXZXqX..d 7 f Z ( b./.`.@XT p , .     . .           O O ",
"                                & $ 7 _ XX@XQ.W.K.P.Y.C.V.4XgXjXCXVXyXyXnXnX0X<X=X8Xm.C.q.@X| 9 1 $ . .           O O O ",
"                              . $ % i f.oXZ.'.I.P.G.(.A.+X6XkXjXhXVXDXDXKXDXVXkX2Xb.n.n.*X-XXXz 1 . . . .         O O O ",
"                            X & * 8 f %.t.H.'.U.U.U.K.).4XeXhXGXCXCXNXBXSXDXVXuXtX&X>X!.;X6.4XqXk 0 .   . .       O O O ",
"                        . . & 1 ]  .| *.B.'.I.c.R.G.M.`.tXkXdXHXVXVXNXAXFXAXHXCXuXuX&X>XZ.:XoX%XcXK 0 .         O O O O ",
"O           O O O O   . $ % i D &.*.#.8.0.m.(.(.'.K.C.D.tXjXHXfXNXNXdXlXpX1X0XyXCXuXuXwXOX#X[.u.|.K 0 . .     O O O O O ",
"O           O O O O   . % 9 D g.#.6.6.<.<.w.m.E.(.m.C.D.eXkXHXdXfXLXGXxX1X! ! {.VXPXCXhXLX].c 7 5 0 * $ &   X # O O O O ",
"              O   X   . 8 S s.$XB.n.e.1.4.4.3.3.L.E.E.S.4XtXjXVXBXNXGXfX0X1X].F z Z }.VXLXF d e * 0 - & .     O O O O O ",
"                      & j h.{.$X*XW.L.M.3.3.3.3.L.L.W.C.=X6XgXjXLXBXdXfXxXGXqXZ g g ..qXqXg 8 8 r 0 * .       @ O O O O ",
"                    . 1 S qX<X@X_.L.L.G.G.G.U.U.U.I.W.E.S.3XtXjXNXNXdXGXHXHXDXJXvXqXV 7 9 1 * * * .       + X   O O O   ",
"            O     . % h p.VX<XF.(.L.P.L.R.R.I.I.U.I.L.W.E.-X7XgXVXVXVXdXfXpXBXJXJXJX XH 1 5 & . $   .     O     O O     ",
"        O       . $ 5 S ].CX4X@X`.(.K.Y.Y.K.G.L.P.I.J.^.H.*X;XtXkXyXhXGXGXLXIXBXJXJXUXvX$ .     .   .     @ @ @ O       ",
"      O O +   . $ % 7 V f.CXtXgX=XS.A.A.A.m.K.(.K.L.L.(.n./.).2XeXjXhXhXHXfX0XLXJXJXUX X% &     #   o X   @     O       ",
"    O O O O   = % , d  .XXXXtXjXtXtX6X@XD.D.A.m.E.K.K.W.E.M.C.=X@X<XeXfXhXGXGXNXBXJXvX|.* .               O O O         ",
"    O O ; + + $ % d D f.XXXX@XrXgXjXkXeX<X@X@XD.S.A./.`.`.).A.D.D.OX<XeXfXdXdXNXDXPX XJ % . + O         O O O O         ",
"  O O O ; + . $ % c d.g.XXoXq.@XCXjXkXkXsXsXeXtX2XS.V.V.V.V.V.D.6XeXsXhXzXGXGXGXBXBXF 8 . .                             ",
"O O O O O   . , i _ g.*.t.B.6.N.4X<X<XkXCXCXjXjXtX7X2X2X2X2X4X6XkXkXhXVXGXAXdXdXNXJXj $ . +                             ",
"  O O O X . & 5 ] %.*.8.o.6.Z.V.@.$.D.6XgXaXsXaXaXgXgXjXjXjXjXjXkXhXVXNXNXAXdXAXDXUXk $ = +                             ",
"    O       $ 7 ` %.#.0.:.:._.).0.b.S.@X@X@X4XaXgXgXjXjXCXjXVXhXzXzXAXNXDXDXAXAXBXKXj $ +   O                           ",
"          . 5 g U X.@.7.1.1.e.E._._.(.E.V.V.2X7XtXtXtXyXkXVXVXVXdXlXSXBXSXnXFXfXSXJXn % + : O O                     O O ",
"        . 1 k ..| +.@.~ 1.w.~ n.J.J.K.W./.).A.V.V.D.@XwXkXCXHXNXAXSXSXSXSXDXDXDXKXMXn $     O                           ",
"  O   & $ < z %.P ^ #.8.5.:.7.e.H.!.W.K./.Y.K.(.Y./.).+X@X<X0XfXmXmXSXAXHXGXGXHXnXUXj & . .   X     O                   ",
"O O O $ , i C X.P ^ +.8.8.8.q.7.e.!.W.K.K.T.T.G.G.K.K.).2X6XeXfXmXKXSXlXzXdXfXBXKXvXb &       O O O O                   ",
"O O   $ 9 D ` ! Y P E +.r.8.6.<.w.e.E.K.K.T.T.P.L.L.(.*X7XaXjXdXnXmXSXfXdXGXAXKXMX|.r $       O O O                     ",
"X @   $ h i.%.Y ^ P P / 8.8.6.7.7.>.n.W.K.L.T.P.P.J.K.E.3XaXjXhXSXKXDXfXdXGXNXJX Xj *     O O O O O                     ",
"      . h h.&.^ ^ E E O.r.8.6.9.w.,.w._./.K.L.L.G.L.K.E.-XtXgXjXNXDXNXdXdXVXNXKX.X& .   O O O O O                       ",
"    . $ h h.&.+.E R Q O.r.8.6.7.9.:.7.E.(.K.L.'.^.^.(.(.-X5XrXCXhXNXdXVXHXVXVXPX.X& . O O O O O                         ",
"    . $ h h.g.*.P R W / O.8.6.6.6.7.7.e.E.E.L.W.L.L.K.E.Z.S.3XrXCXjXjXCXjXeXqXqXh.*   O O O O                           ",
"X   . $ i s.&.t.E R R W Q O.9.9.( 9.7.:.e.E.K.W.W.L.W.!.E.Z.-X5XrXtXtXkXkX<XOX#X] %   O O O                             ",
"      % u d.=.#.( ~ E W / O.8.6.9.6.6.7.w.e.H.W.W.W.W.E._._._.Z.;XaXoXP $X@XOX$X..< $   O O . .                         ",
"    . % u d.=.#.6.) / W W +.5.6.6.6.6.7.1.1.w.H.E.E.E.E.E.E.W.!._.8X8.P oX@X+X4X' 3 $   O O . .                         ",
"    . % i d.=.#.q.6.o.Q W W o.8.8.8.9.q.7.>.w.n.E.E.E.W.E.E.W.'.W._.( ^ N.+XE.-XW u $   +   . .                         ",
"    . , i d.=.#.<.6.5.Q R W ( 0.8.8.8.9.7.7.w.e.E./.E.E.W.'.^.W.H.*Xo.^ oXS.H._.O.x 2 . X   $ $                         ",
"    . , i d.=.8.) <.6.( W W ( q.@.o.5.6.7.7.7.7.b.E.).E.E.W.^.J.e.-XW L @X-XL.W.Z.g.h $     & $                         ",
"    . , i d.=.8.<.<.q.8.o./ ( @.8.@.o.6.9.7.5.1.<.b.).C.K.L.I.J.!.-XT a N.-XL.J.Q.$Xk .     $ .                         ",
"    . , i d.=.6.<.<.q.0.8.o./ / 8.8.8.9.9.w.7.9.) ) 2.M.K.L.L.^.*X:XT y ^ Z.J.P.H.$Xh . : # & $ .                       ",
"    . % u d.=.8.6.<.7.9.9.o./ Q 6.@.6.7.w.7.9.0.o.R R q.Q.W.J.J.Q.@XI f I t.W.'.H.:Xf 6 t t r 0 . .                 O O ",
"X X   $ 9 h.&.t.8.6.7.9.9.9.8.8.q.:.>.w.w.>.5.t.+.} L a 5.*XI.^.M.7XZ p i.f.+XE.(.B.l f j.J K n r . . .   #   O O O O O ",
"O O   $ d h.f.t.8.9.9.7.5.7.9.q.6.<.1.>.,.>.8.#.X.' I y r.&XJ.'.m.+Xx 3 a _ wXS.K.m.P x g J K u.r * * &         O O O @ ",
"O +   $ 9 i.%.=.o.9.w.>.,.7.w.6.@.0.q.:.:.0.r.;.' ` U 4 X.oX~.Q.).@XU y u v l.V._._.t.I 3 F S H j 1 . . . o o X O O O O ",
"O +   $ 2 S ` =.+.6.7.1.1.1.1.:.@.t.q.) 6.0.#.X.' ` C p I ;.@XZ.B.2XC 4 c f l r.Z.b.-XX.a f 3 i 7 1 1 * $               ",
"; ;   $ % i C l.*.8.6.1.1.2.2.<.@.$.@.6.6.6.( Y '  .C C f I :XoXZ.4Xx 3 F f 3 ;.8.-X5X+.x a a C S G G n r & . &         ",
"; ; + = % 2 c g.XXr.@.6.2.<.2.<.@.@.@.q.q.<.^ E Y X.` | p l XX$X&X:XU d g g p I X.oXt.oXX.l l [ u.u.J J A 6 .   .       ",
"; ; O + $ % d D &.-.*.#.@.6.6.6.8.8.6.7.1.,.~ R Y Y ' | f l ' l.&XoX%.Z 9 d k p x iX$X$X#XqXd.4 M u.a.j.J 0 $ . . .     ",
"; ; O   . $ 2 i ]  .g.-.*.*.*.#.#.8.6.:.:.( Q R ^ T ' ' x x x ;.,X&XN.&.8 d H u N i.` ].9X[.i.u n G b n b * . . .       ",
"O O O O   . $ % h F p.f.f.&.&.;.*.r.r.O./ W E W Y ' ' ' %._ y %.>X~.@X}.d d m G 9 h V p.[.a.M 4 , , % $ . .         O O ",
"O O O O     . $ 1 8 d d f D s.[.g.g.g.=.;.X.X.X.%. . .[ i._ y %.>X,X@X}.e 5 0 q w 2 5 e e e 2 % $ $ $ . . .     O O O O ",
"O O O O O O   . . $ $ % , i M { _ _ _ _ D C v c S c M M S M 4 [ z.&XoX .8 * . + > % $ . . . $ = . . .       O O O O O O ",
"O O O O O O O X   $ & $ % < 3 3 3 3 3 < < < < , , % , , 2 7 % c O.y.$.U 1 $ . = + + $ o o . + = . . .       O O O O O O "
};
