/* XPM */
static char *_a9ee4d8864e4acc96576cdf05475689w26Z57X3JuQGKqkT[] = {
/* columns rows colors chars-per-pixel */
"60 60 256 2 ",
"   c #010101",
".  c #0B0100",
"X  c #00020A",
"o  c #070807",
"O  c #130100",
"+  c #1A0200",
"@  c #140A01",
"#  c #1B0A01",
"$  c #130C0A",
"%  c #1B150A",
"&  c #000511",
"*  c #000B10",
"=  c #1A1710",
"-  c #230300",
";  c #2A0200",
":  c #250B00",
">  c #2D0B00",
",  c #340400",
"<  c #330D00",
"1  c #3C0C00",
"2  c #3C0100",
"3  c #291505",
"4  c #341400",
"5  c #3B1300",
"6  c #351C02",
"7  c #3C1B01",
"8  c #371A0A",
"9  c #291C14",
"0  c #3C2206",
"q  c #352817",
"w  c #3F2D21",
"e  c #450800",
"r  c #431400",
"t  c #451C00",
"y  c #491A03",
"u  c #531400",
"i  c #491508",
"p  c #452202",
"a  c #4D2301",
"s  c #462809",
"d  c #562803",
"f  c #5C3509",
"g  c #422A16",
"h  c #572D12",
"j  c #483517",
"k  c #563516",
"l  c #4D330A",
"z  c #663708",
"x  c #743807",
"c  c #6D3C13",
"v  c #653E1E",
"b  c #783B15",
"n  c #6B2B05",
"m  c #543924",
"M  c #6E3A24",
"N  c #794606",
"B  c #6A441C",
"V  c #774818",
"C  c #6C4406",
"Z  c #554332",
"A  c #694524",
"S  c #784B25",
"D  c #7D542C",
"F  c #684C33",
"G  c #77593A",
"H  c #724E34",
"J  c #69512E",
"K  c #7B5D43",
"L  c #813C00",
"P  c #8A480A",
"I  c #9C560A",
"U  c #89551A",
"Y  c #9A5A1A",
"T  c #884A14",
"R  c #A5590C",
"E  c #A55B14",
"W  c #A35C1B",
"Q  c #AC5D1C",
"!  c #A85915",
"~  c #B25D10",
"^  c #9F631E",
"/  c #A86219",
"(  c #B76719",
")  c #B8721D",
"_  c #854C25",
"`  c #885628",
"'  c #975B25",
"]  c #855C36",
"[  c #9D5E3F",
"{  c #A45922",
"}  c #9C632B",
"|  c #966329",
" . c #87663A",
".. c #976736",
"X. c #96712D",
"o. c #A86726",
"O. c #BC6D23",
"+. c #B76A26",
"@. c #BF7223",
"#. c #BD732C",
"$. c #BF7C2D",
"%. c #A96B36",
"&. c #B76A37",
"*. c #AC7238",
"=. c #BB7533",
"-. c #B87839",
";. c #A77F27",
":. c #C86B0E",
">. c #C46D1C",
",. c #C66D16",
"<. c #C4731C",
"1. c #CC731C",
"2. c #CA751B",
"3. c #D4771C",
"4. c #D37012",
"5. c #EA7C1C",
"6. c #C26E22",
"7. c #C47324",
"8. c #CA7323",
"9. c #CC7B24",
"0. c #C4742A",
"q. c #CA752A",
"w. c #CC7A2A",
"e. c #C4792A",
"r. c #D47C24",
"t. c #D57B29",
"y. c #C37B33",
"u. c #C67937",
"i. c #D47D38",
"p. c #E37F31",
"a. c #876445",
"s. c #976B46",
"d. c #917250",
"f. c #A97547",
"g. c #B77846",
"h. c #A37851",
"j. c #C27E44",
"k. c #C27851",
"l. c #B7803F",
"z. c #DF8A1D",
"x. c #E98C16",
"c. c #F48A1A",
"v. c #F5981F",
"b. c #D3842D",
"n. c #DB822C",
"m. c #DC8B2D",
"M. c #D88729",
"N. c #DB922A",
"B. c #C8873B",
"V. c #DD8C34",
"C. c #DB8D3C",
"Z. c #D58735",
"A. c #DC933C",
"S. c #D99539",
"D. c #CD8E27",
"F. c #E48424",
"G. c #E68C25",
"H. c #EC8B24",
"J. c #E2852C",
"K. c #EA852B",
"L. c #E58B2D",
"P. c #EB8C2D",
"I. c #EB8527",
"U. c #F48924",
"Y. c #F38C2C",
"T. c #F58928",
"R. c #EB932E",
"E. c #E89227",
"W. c #F79429",
"Q. c #E48C32",
"!. c #EB8C32",
"~. c #E38C3B",
"^. c #E98837",
"/. c #F18D32",
"(. c #E49235",
"). c #EA9134",
"_. c #E4923B",
"`. c #EB923B",
"'. c #E69B3A",
"]. c #F49436",
"[. c #DCA23F",
"{. c #E8A13A",
"}. c #B9824A",
"|. c #B98C57",
" X c #B18C4F",
".X c #BB9964",
"XX c #AB8C62",
"oX c #BBA376",
"OX c #9E8861",
"+X c #C88744",
"@X c #D78B46",
"#X c #DC9244",
"$X c #DD9B4A",
"%X c #D79745",
"&X c #CB9458",
"*X c #D79757",
"=X c #C88A57",
"-X c #E98B43",
";X c #E49242",
":X c #ED9443",
">X c #E89B4A",
",X c #F59943",
"<X c #E79754",
"1X c #F39148",
"2X c #D8A24C",
"3X c #D8A856",
"4X c #D0AF52",
"5X c #E9A64C",
"6X c #E6A856",
"7X c #F6A959",
"8X c #E9B35A",
"9X c #F8B758",
"0X c #F5A74C",
"qX c #D19B67",
"wX c #DAB566",
"eX c #D8B171",
"rX c #EAB768",
"tX c #F6B967",
"yX c #F7BD75",
"uX c #EBB671",
"iX c #E99D61",
"pX c #DFC065",
"aX c #F8C469",
"sX c #ECCC7C",
"dX c #E9C878",
"fX c #FBC574",
"gX c #F4CB7D",
"hX c #FCCB7B",
"jX c #F7C876",
"kX c #ECD17D",
"lX c #E7D17B",
"zX c #F4D17A",
"xX c #EEC16C",
"cX c #D3B686",
"vX c #E6BE85",
"bX c #DECD8F",
"nX c #ECCC84",
"mX c #ECCC8B",
"MX c #E5C887",
"NX c #F4CC83",
"BX c #FDCC84",
"VX c #F4CD8A",
"CX c #FBCD8A",
"ZX c #F8C583",
"AX c #EDD284",
"SX c #E4D38A",
"DX c #EDD38A",
"FX c #E7D385",
"GX c #F4D383",
"HX c #F8D389",
"JX c #EDCC93",
"KX c #E7D493",
"LX c #F8D696",
"PX c #F1CF90",
"IX c #F2D8A3",
"UX c #DDCFA0",
/* pixels */
"        .       X   X X * X     . 0 ] ' ' { n e e 2 , + O . @ : 4 6 + .                                                 ",
"                              @ O p ` -.+X@Xu.&.k.[ M , + + s A B V l #   .                                             ",
"                            . O 7 N ^ $.V.Q.Q.;X>X+X%.b z z ..|.}.f. .s @                                               ",
"                        . . O ; } *X#XV.R.E.W.G.L.A.>X@X*X*XuXBXZXeX.XK j @ . o                                         ",
"                      . O + 5 c =.>XQ.z.x.x.x.x.x.G.(.m.C.C.5X7XBXyXqX .m O                                             ",
"                    . . O + h g.Z.^.F.H.W.c.x.v.E.G.).J.!.J.P.Q.9XBXZX..k O . .                                         ",
"                      . O ; A =X-XK.P.P.H.H.x.H.F.J.).!.]./.Y.I.n.tXtX' z + . .                                         ",
"                      . - p ] *X-XK.,X!.J.,X`.;X:X;X-X^.!.K.Y.Y.P.0X#XY %.f : .                                         ",
"                X X     3 H s.*X`.P.!.`.;X@X+Xu.j.+X@X-X`.!.Y.Y.P.L.V.E +X|.7 : O         X                             ",
"                X X X $ : > c *X`.P.L.C.@Xo.x u u x W u.~.).P.G.H.P.Q.w.%X&X` k O .       *                             ",
"                & X   . 8 5 z @XJ.G.(.Z.o.N a 5 a ` &X7X5X'.E.z.H.R.L.`.#X@X=XS - . .     X                             ",
"                X X o O > r P >XG.E.N.) N a 7 p ..qXCXBXtX5X{.N.G.R.P.].Q.Z.*X} 5 O . .       X                         ",
"X               *   . + , } @Xr.R.R.'.2X3XeXeXcXeXMXNXgXfXaX5XD.m.P.H.P.P.`.#X-.` 4 O .                                 ",
"X X               $ + > b *X:XR.G.M.Z.2XxXDXDXKXDXPXNXgXhXjX8XS.m.P.P.F.Y.].~.@X}.a + O .                               ",
"& X             . . O A qX>X4.W./.`.>XrXdXlXFXFXdXnXNXNXNXZXuXrXA.R.P.H.U.P.Q.Z.o.d 4 3 .   X X                         ",
"X X             . # d.qX&XC.].F.,X7XtXhXCXHXAXkXAXnXnXVXHXVXdXrXV.P.H.].H.F.].b.y.} s.G 8 . . .                         ",
"X   X         . . 3 a.h...l.+X2X6XfXyXZXuX3XwXpXdXkXnXmXmXHXgXtXL.I.P.).`._.M.9.7.e.=.*.S 7 O . o X     o               ",
"              . # : 6 - < V }.CXgXNXLXvX&XU l.2XdXkXmXmXmXNXjXtXL.Y.!._.V.b.9.<.:.2.8.y.g._ < O .             .         ",
"                  # 6 4 0 a ] IXLX XC z N |.4XwXlXkXmXmXVXNXxX8XV.!._.V.b.8.,.:.:.F.F.n.@X-.c 4 . X                     ",
"                $ % 3 3 3 : k cX.XX.f d C eXsXGXkXAXmXmXVXjX8XS.m.L.Q.V.n.r.3.3.5.U.W.P.~.@X*.f .   o .                 ",
"                    $ % 3 3 : 0 : f eXvXLXdXnXAXAXAXnXVXBXyX5XN.E.E.R.Q.Q.Q.P.T.T.5.Y.P.Q.>X3XC + .                     ",
"            X X X     o   o $ @  .|.JXMXLXMXnXnXAXnXnXNXfXtX>XN.E.H.G.P.!././.Y.Y.5./.P.b.>XfXX.g # .                   ",
"            X   X     X       # oXIXJXMXMXLXDXnXAXnXNXfXtX5X(.G.c.c.c.H.P.!.!.P.!.L.`._.$X3XBX XF 3 . .                 ",
"                  *       o o . oXLXmXmXLXMXdXHXnXNXgXtX5XA.J.H.c.c.c.H.P.Q.Q.(.V.A.A.$XhXjXBX XS > O O                 ",
"                            . @ OXvXmXMXnXHXnXNXdXwX3X%XA.(.G.H.T.U.H.!.(.S.S.%X$X8XtXrXBXfX+X&Xs.s : O .               ",
"X X                         . . G .XPXnXnXnXdXdXwX3X2X%XS.(.).]./.P.L.V.#X%X2X3XrXxXjXhXyX6X@X+Xf.S t + O               ",
"X X X                       . . : B MXnXGXHXHXHXgXdXrX8XS.N.m.V.;X#X$X6XrXxXxXdXgXjXjXhX$X0.~.i.u.*.f + O .             ",
"X X X                         . O l JXnXGXsXNXNXHXGXzXaX8X5X6X7X*X*X3XuXjXgXgXzXjX3X$X5Xb.>.J.t.#.-.U t O O             ",
"                                O j IXDXAXsXsXnXsXsXzXjXjXhXBXBXCXCXBXBXgXfXfXfXtXB.) <.m.Q.1.,.>.#.%._ 4 O             ",
"                                . j UXMXAXAXHXHXDXAXkXzXzXGXCXVXNXgXhXjXtX5X$XA.5XZ.b.9._.!.:.1.r.O.&.` 5 O .           ",
"                          X X X . Z UXbXFXlXnXMXMXnXlXlXkXDXJXmXrX8X9X9X9X{.(.L.L.`.:X_.V.9.>.9.3.,.o._ h : .           ",
"                        X X X X   Z UXKXDXkXAXDXFXSXFXFXAXAXVXZX6X[.S.N.L.L.H.P.L.!.m.V.w.>.9.( ,.>.+.' s.k # .         ",
"                          X X   . m IXMXnXGXGXAXFXSXSXSXsXwX3X%X_.(.Q.Q.R.P.P.P.L.!.).Q.t.8.<.<.7.@.( I } c ; O o X     ",
"                                . k cXJXnXdXlXkXDXKXKXSXdXrX5X'.!.!.P.P.P.P.P.L.!.).Q.t.8.8.8.8.0.+.( I / V t + . X X   ",
"                                . g OXMXPXsXkXGXMXSXbXMXnXgXaX9XQ.P.P.P.P.P.L.L.Q.Q.n.2.>.8.9.8.O.E R I / ' S 8 . X     ",
"                                  # j .XmXsXsXsXDXKXKXFXNXhXtX0XQ.P.P.P.P.P.L.L.L.n.1.1.8.8.8.7.+.I R R W %.s.g . X     ",
"                                    O OXPXHXGXsXAXDXmXmXNXjX8X'.Q.P.P.P.P.P.!.Q.Q.r.>.8.w.7.6.q.0.E E / / *.h.7 .       ",
"                                X   @ XXLXgXhXHXsXMXnXVXBXfX6X_.!.P.P.P.!.!.Q.Q.Q.9.>.8.q.7.0.q.#.Q E / o.-.f.7 O       ",
"                                X   + d.uX3XrXhXBXCXCXBXyX6XS.Z.!.P.P.P.!.P.Q.J.t.9.7.>.7.0.0.O.Q Q R R #.-.f.p O       ",
"                                X   + ` *XB.6XfXyXyXyXyX7XA.Z._.L.P.P.!.P.!.J.m.,.8.8.) 0.e.O.! ! o.I R y.-...p O .     ",
"                                  . - ' $XC.#X%XY @XhX>XV.(._.(.P.P./.!.!.J.t.1.8.7.q.0.O.0.0.Q ! ! ( ) e.-.f.t O .     ",
"                                  . ; ' >XQ.;X#XI #.7X~.L.P.L.L.P.P.P.L.J.r.1.8.8.7.7.0.0.@.+.E Q +.@.7.0.=.f.t O .     ",
"                  .               . r / ,XL.~.C./ +.:XJ.Y.Y.G.L.!.P.!.Q.n.1.>.8.8.0.0.0.q.O.R R Q O.q.7.@.=.f.t O .     ",
"                                . > x 0.].K.~.@X/ +.:XK.Y.Y.P.).L.!.).Q.t.8.8.8.q.q.6.0.u.( R R Q O.q.<.@.=.f.t O .     ",
"                            . . . s -.V./.P.:X@XL Q :XK.U.Y.P.Q.Q.).Q.n.8.8.8.6.0.0.6.0.w.( R / ( @.8.<.@.u.g.t + .     ",
"                .           . . . k *X~.I.P.;XB.u P >X!.U.Y.L.Q.(.Q.n.1.>.8.8.7.0.0.7.0.0.( / ( 0.7.7.<.7.u.g.r + .     ",
"                        . . . . O h *X^.I.P.Z.o.e P >X!.Y.Y.Q.Q.m.8.,.>.8.8.q.q.0.0.0.0.( ( ( 7.q.7.<.<.7.=.f.y + .     ",
"                    . # 9 q g g 4 f $XJ.Y.!.y.U y T >X!.U.U.Q._.7.R R 6.w.8.6.q.q.7.q.7.~ ( 7.8.7.7.<.<.0.=.f.y O .     ",
"      o     . . . . O 0 A G a.d.a n Z.).H.m.-...r V 6XL.c.T.!.O.e N o.+.q.8.>.9.8.8.7.7.7.8.1.1.9.7.e.@.y.*.f.7 O       ",
"                  O # s a. .S z b P _.L.R.5XU t > V <XP.U.U.1Xu.e V } / O.8.>.>.8.7.7.7.7.8.1.1.<.7.9.O.y.*.f.7 .     X ",
"X X X X X       o . + j G S B , T u.,Xn.t.B.V 5 < V >XP.U.I.@X&., V | Y / w.q.7.7.0.0.0.0.7.8.1.,.2.9.( y.%...0 .     X ",
"      X X     o @ # : > < 5 f , =.#Xn.:XZ.u a B 5 N >XG.P.~.&._ 5 V | Y / e.w.7.0.0.0.0.0.0.7.8.1.3.1.( y.' c 4 .     X ",
"            . q m F A v V r r x @.>X~.q.&.e h k 1 N >XJ.~.<X_ d c ` } Y E ( 6.7.7.0.0.0.0.7.7.8.1.,.,.7.=.V t O .   X X ",
"  .   . . . 3 F K ] ] ..` n n o.Z.b.<X{ _ y s B y P '.Q.C.+Xz r ..} o.W E ~ >.w.8.8.7.7.7.8.8.8.1.>.8.u.-.c > O .   X X ",
". . . . O O 6 G a.a.s.c e %.qX@X#X#XiXb r m g 7 N ( `.`.u.' d a } W E E R ~ >.8.1.8.8.8.8.8.8.8.q.0.=.*._ a + .   X X X ",
"  .     . . + m A k A f 1 %.|.&X+X} ' b i Z g 4 o.Z.J.-X&.c h B ' Y W ! R ~ ( ( 8.8.8.8.8.8.8.0.=.*.%._ a : . .   X X X ",
"X X           . @ # # - 4 v d.XX..c y y Z Z q 6 B._.J.1X%., D ..' Y Y W W E E Q 0.0.0.O.#.#.#.%.f.s.D s # .     X X X X ",
"X X X X X         . . . O : 0 g 7 6 < 4 9 = % s +X:X-X<X%.e D ....} } } } } o.%.j.g.g.g.}.%.V d a s 6 #       X X X     ",
"X X X X X           . . . . . . . O + O .   o 6 +.n.-Xj.` 1 z c B B B A A B A B ` _ S _ D A p - O . .     X X X X X     ",
"X X X X                 . . . . . . . . .   . : P >.-X+.b ; < > ; - + + + + - - ; ; ; ; - - + . . .     X & & X X X     "
};
