/* XPM */
static char *_d7f9f24f239437fc757c39fb517463f8lejGo0eAz8BxZ8o[] = {
/* columns rows colors chars-per-pixel */
"60 60 232 2 ",
"   c None",
".  c #371D04",
"X  c #3D2408",
"o  c #362817",
"O  c #28261C",
"+  c #2E2C26",
"@  c #2C2C29",
"#  c #232A23",
"$  c #2D312D",
"%  c #263028",
"&  c #38382D",
"*  c #2A3431",
"=  c #333B3B",
"-  c #353633",
";  c #302D26",
":  c #452A13",
">  c #4A2D13",
",  c #442F1A",
"<  c #4C341C",
"1  c #4B3417",
"2  c #52361D",
"3  c #543B1D",
"4  c #583918",
"5  c #482B09",
"6  c #463A24",
"7  c #4B3C2C",
"8  c #463926",
"9  c #543C24",
"0  c #5A3E23",
"q  c #533C27",
"w  c #463E35",
"e  c #483D35",
"r  c #623E24",
"t  c #3C443B",
"y  c #3D412B",
"u  c #48442D",
"i  c #5B4224",
"p  c #54442D",
"a  c #5A432C",
"s  c #5C492D",
"d  c #554427",
"f  c #454035",
"g  c #4A4336",
"h  c #4C483D",
"j  c #544532",
"k  c #5C4C35",
"l  c #544B3B",
"z  c #5E4D3A",
"x  c #564636",
"c  c #5E533B",
"v  c #5C5337",
"b  c #644A2C",
"n  c #6B4C2C",
"m  c #624428",
"M  c #724E2B",
"N  c #754C26",
"B  c #6C522D",
"V  c #67512A",
"C  c #75532D",
"Z  c #7A552D",
"A  c #725127",
"S  c #644C33",
"D  c #6C4D32",
"F  c #614D39",
"G  c #674A35",
"H  c #635235",
"J  c #6B5335",
"K  c #63533C",
"L  c #6B543B",
"P  c #6C5A3C",
"I  c #68593A",
"U  c #745434",
"Y  c #7A5633",
"T  c #745A35",
"R  c #7C5A36",
"E  c #73553B",
"W  c #7A563B",
"Q  c #755B3C",
"!  c #7C5A3B",
"~  c #704E33",
"^  c #7D623D",
"/  c #74603F",
"(  c #1F3C51",
")  c #353C40",
"_  c #273C4A",
"`  c #3C4344",
"'  c #374448",
"]  c #284658",
"[  c #364E5C",
"{  c #2D4C56",
"}  c #3C5B6C",
"|  c #375763",
" . c #3E5D72",
".. c #334F64",
"X. c #434B4D",
"o. c #4A4842",
"O. c #584D44",
"+. c #54544D",
"@. c #5C564B",
"#. c #434E52",
"$. c #495258",
"%. c #5A5953",
"&. c #4A504B",
"*. c #645542",
"=. c #6A5641",
"-. c #655946",
";. c #6C5A43",
":. c #645B4B",
">. c #6B5D4C",
",. c #65544A",
"<. c #735743",
"1. c #735C44",
"2. c #7C5C42",
"3. c #725D4A",
"4. c #7B5E4A",
"5. c #645C54",
"6. c #645F5C",
"7. c #6C564D",
"8. c #6D6149",
"9. c #756244",
"0. c #7C6343",
"q. c #73624B",
"w. c #7B624B",
"e. c #7C694C",
"r. c #676557",
"t. c #736451",
"y. c #7A6552",
"u. c #7C6B53",
"i. c #776A5B",
"p. c #7E745B",
"a. c #415A69",
"s. c #545F64",
"d. c #425F73",
"f. c #43626E",
"g. c #58666A",
"h. c #4D6A7C",
"j. c #476475",
"k. c #526B7A",
"l. c #6C6C64",
"z. c #686565",
"x. c #746C6A",
"c. c #797A6E",
"v. c #76756A",
"b. c #777874",
"n. c #636E71",
"m. c #825C34",
"M. c #825E3C",
"N. c #8A5E37",
"B. c #83623B",
"V. c #866138",
"C. c #825E42",
"Z. c #836344",
"A. c #896442",
"S. c #836944",
"D. c #896A45",
"F. c #816448",
"G. c #836B4B",
"H. c #8B6A4C",
"J. c #886349",
"K. c #836B53",
"L. c #836E5A",
"P. c #88745A",
"I. c #8C7964",
"U. c #867866",
"Y. c #927E67",
"T. c #8A7E70",
"R. c #97856C",
"E. c #8C8373",
"W. c #888978",
"Q. c #958674",
"!. c #958B75",
"~. c #9B8D75",
"^. c #998C7A",
"/. c #968A79",
"(. c #9A927B",
"). c #A28B6E",
"_. c #A7947B",
"`. c #A99078",
"'. c #547283",
"]. c #5B7381",
"[. c #4F6E80",
"{. c #6D7D83",
"}. c #7F9197",
"|. c #6C8080",
" X c #858C89",
".X c #869297",
"XX c #91918C",
"oX c #A49482",
"OX c #AA9B85",
"+X c #AD9B8A",
"@X c #A59A88",
"#X c #B29C88",
"$X c #A99F93",
"%X c #B3A28D",
"&X c #BCA488",
"*X c #B6A694",
"=X c #BAAB9A",
"-X c #B9AA95",
";X c #AFA592",
":X c #8EA6B3",
">X c #C3AE97",
",X c #C4B59C",
"<X c #D2BB9D",
"1X c #C1A98F",
"2X c #C8B9A5",
"3X c #D2BDA1",
"4X c #CCC2AD",
"5X c #D5C3AA",
"6X c #D8C7AC",
"7X c #CCC3B4",
"8X c #D3CBBB",
"9X c #D9CCB9",
"0X c #D9C8B3",
"qX c #DDD2BE",
"wX c #E4CCB4",
"eX c #E6D3BA",
"rX c #DDD2C1",
"tX c #EBDCCB",
"yX c #E8D8C6",
"uX c #F3DDC6",
"iX c #F6E3CA",
"pX c #EFE5D5",
"aX c #FCEAD4",
"sX c #FCEDDB",
"dX c #F5E7D7",
"fX c #FEF4DC",
"gX c #FFF7DA",
"hX c #FFF4E3",
"jX c #FFFAE4",
"kX c #FFFCEB",
"lX c #FDF6E9",
"zX c #FFFBF0",
/* pixels */
"                                                                                                                        ",
"                                                                                                                        ",
"                                                                                                                        ",
"                                                        f.j.[.h.                                                        ",
"                                                      h.{ ( [ a.                                                        ",
"                                                  j.[ h.        |                                                       ",
"                                                  d...'.        ] }                                                     ",
"                                              j.]                   [ }                                                 ",
"                                              } h.                  k.f.'.                                              ",
"                                          ( ]                           | ..                                            ",
"                                      j.h.'.                              [.f.}                                         ",
"                                      ] ]                                    .]                                         ",
"                                  ] a.                                          ] d.                                    ",
"                                  ] }                                            . .[.                                  ",
"                              ] }                                                   } }                                 ",
"                            '.j.h.                                                  k.a.k.].                            ",
"                          _ a.:X                                                    }..Xg.) n.                          ",
"                        [ ' $.g.n.                                                }.g.s.X.) $.s.                        ",
"                    g.) ) #.X.= $.                                                {.#.` ` ` X.= g.|.                    ",
"                  X.= - - @ @ @ * '                                             #.` * $ $ $ $ @ $ t g.                  ",
"                = @ + 8 & o o 8 + % -                                         .X* # + & & ; + - O O &.                  ",
"                O.h 7 7 p a a p u h o.W.XX                              .X.X X X+.& f g l l e O.l 8 5.XX                ",
"            v.U.-.K a a b D n m p -.c i.i.c.b.l.b.b.b.b.b.c.c.c.v.v.v.b.b.b.v.v.:.x z p x =.x F =.j >.U.x.b.            ",
"          l.:.;.y.;.E Z.J.R Y B.Q w.H e.;.:.:.:.:.:.:.:.:.-.-.-.-.-.-.-.>.>.>.*.;.<.K.E E K.1.1.1.L y.y.O.x.            ",
"        l.i.q.1.1.Q 2.Z.M.N N.m.M.T Z.b 0.J L 1.w.F ;.y.=.1.K.L <.P 1.3.<.3.4.E Q ! R ! R W J.C.E <.4.<.y.i.%.b.        ",
"      %.5.*.L 2.F.U U R R Y N.N N Y A.U H.Z.Z.F.E 2.2.2.2.E W 2.0.Q Q E <.E Q 2.W C M M.A.Y M n Z.1.E D 4.y.O.z.        ",
"      l.i.1.Q F.W G.0.E H.M.Z V.Z B.B.M R U R R C.U W 2.W 2.Z.W U Y T 2.J.2.U R R A.B.Y R C.A.H.2.2.F.<.4.4.,.x.        ",
"      %.-.L D U b b <.J D U M N C B.Y M Y Y R U U W W W W ! W U B T U E 2.2.W Q U R Y M U n r D J G Q L E <.z 5.        ",
"      - 8 a m 4 J X a a . 2 b 1 5 4 5 1 i 3 0 1 > b 2 . : : : G i i < : : : , , 3 X > i S d X 9 6 o < > 2 S j o.        ",
"      o.j b m 4 9 I.%X+X+XL.1 F._.).i b b b J G 0 9 Y.>X#X#X~.< s s u._.+X#X%X%X_._._.H 6 Y.+X*XOXoX#XP.q 9 x @.        ",
"      %.K b n U L 0XsXpXkX=X, _.jX6XK H k a H L L F 2XkXsXdX2X8 z 6 !.hXkXsXhXjXfXjXjXp.8 4XkXsXjXjXjX3X2.a z r.        ",
"      @.K G H.&X5XOX^.U.I.P.H ~.jX5Xk 8.q.K ;.L >XeX+Xy.Q.oX+XyXOXK (.hXrXQ.T.Q.!.i./.:.-.8XpX7XE.U.R.P.J <.>.%.        ",
"     X:.3.<.1.yXjXQ.s S D T D `.hX9X*.q.L q.<.1.iXjXI.F *.x *XjX2Xc !.jXqX;.>.j ;.*.*.*.*.4XkXoXv I B V T / ;.r.        ",
"     X5.3.1.3.tXhX!.J 0.B.Z.D ).jX9X;.y.;.q.1.1.eXfXY.;.q.K -XhX,X6 Q.jXeXk F P.F z q.t.t.9XkX%X< H 0.S.^ P ;.v.        ",
"     X:.3.<.3.yXkX!.H Q T ^ D `.hX9X;.q.;.q.;.<.uXfXY.L 3.K =XkX5Xc !.6X2X~.Y.U._.E.^.>.x 2XsX2X).P.J V T P K r.        ",
"     X:.1.<.;.yXkX^.H J J Q J OXjX9X*.q.*.1.;.<.uXjXR.=.q.K =XjX,Xs ;.c R.sXkXaXhXhXhX/.@.rXkXsXfX&XQ b 0.e.;.r.        ",
"     X>.1.1.3.tXhX^.P w.0.0.H _.kXqX-.q.;.q.1.q.eXfXR.3.u.*.*XfX6XI u.v 8.OX*X-X*XpXkXE.g 8XlX4X-XR.w.Q 0.1.-.l.        ",
"      >.w.2.q.tXhX/.K 9.Q 1.K oXkX8X*.8.*.q.;.1.uXfXI.K >.z =XjX%Xd u.q.8.9.k K t.rXkXE.l 8XlX;Xx H L E <.L *.l.        ",
"      >.1.<.1.yXjX/.K P J P c oXhX8X-.q.;.q.;.;.uXfXI.S ;.z =XkX5XP 9.H ;.q.;.;.q.tXhXE.O.8XzX$X*.<.<.<.w.q.t.l.        ",
"      -.<.E L eXsX!.;.K.e.q.z /.kXrXt.L.q.u.1.1.5XaXR.u.U.>.=XaX>Xb P e.P.u.q.u.y.tXpXT.@.7XzX$X>.L.K.4.<.L *.%.        ",
"      j 0 0 q q 8 9XjXiXgX_.o E.jXfXkXiXjXiXq 2 S q 6XaXaXkXoXq d X R.gXgXaXfXfXaXu.8 7 l =XkXhXhXaXjX&Xa q 7 %.        ",
"      x m m a a 7 oX6X6XwX`.u i.9X6X0X>X5X,XG J 2 9 1XwX0X0XU., J 3 P.<X<X3XeX0X2Xq.p j p Q.0X2X0X2XwX).G S j +.        ",
"      z D D G G S p b i 3 i d K j p k a L Q 9 b E 0 m 9 < G L L b i b n i i s i L 9 z ;.S K 1.s F q Q b 0 H l +.        ",
"      -.<.W E E K.H T T n Q e.;.;.;.P 1.J J Q U J W W 2.w.L L E Q 0.Q U J E J J J J P P J S J J ;.s Q Q 2.e.>.r.        ",
"      >.2.! W 2.J Q R B.B.^ Q S 9.9.Q F.Q U Z.C U M.n U 2.D E 2.~ W W R F.0.2.S.0.0.Q Q 0.Q R 0.w.Q Q Q Q P z %.        ",
"      >.4.M.W 2.Q G.Z A Z C 0.e.Q J J Q R R D.M.Y M.Y M.H.2.2.2.C.C.! R ! U J Q n U U T D.B.C n T 9./ T ^ 9.q.c.        ",
"      >.2.! W 2.U D.R V.V.Y F.9.F.0.0.T Y U C Z M.Y Y M U ! ! C.W Q W R R R ^ ^ S.B.Z A Z R V.D.T G.T B T I I r.        ",
"      5.4.W W 2.T Z.Z V.Z Z D.J T U Z.U M.M.C M.M.Y A.R R Z.! ! ! C.Z.! U B.S.U U T M.m.m.m.m.Y U G.T B 0.9.8.r.        ",
"      6.O.*.<.1.Q R Y R Y Y T R R ! ! ! ! ! ! ! ! ! ! ! ! ! ! M.! ! ! ! ! ! ! ! ! ! ! R R R R R ^ Q T Q 1.>.:.+.        ",
"      +.o.5.p.3.1.1.2.2.Q Q / 1.2.2.2.2.2.2.2.2.2.2.2.2.2.2.2.2.2.2.2.2.2.2.2.2.2.2.2.2.2.2.2.2.T Q 9.q.>.@.o.`         ",
"          +.O.l z z z z z z c z z z F z F z F z F z F z F F F F F z F F F F F z F z F z F z F z k v v v l %.            ",
"            ` o.f f w w f f f f f w w w w w w f w f w f f w f w w w w w w e w f f w w w e f f f u u y & t               ",
"                                                                                                                        ",
"                                                                                                                        ",
"                                                                                                                        ",
"                                                                                                                        ",
"                                                                                                                        ",
"                                                                                                                        ",
"                                                                                                                        ",
"                                                                                                                        "
};
