/* XPM */
static char *_4f5ad1bd54146a0ca14e206795f37f8mJp7rvpIkOlYQKfu[] = {
/* columns rows colors chars-per-pixel */
"60 60 212 2 ",
"   c None",
".  c #371F03",
"X  c #1C211D",
"o  c #392418",
"O  c #2D261C",
"+  c #182125",
"@  c #2D2D2B",
"#  c #242927",
"$  c #322622",
"%  c #382F29",
"&  c #373229",
"*  c #2A363B",
"=  c #343C3D",
"-  c #383735",
";  c #4B331E",
":  c #5C3B16",
">  c #543B1C",
",  c #5B3B1D",
"<  c #563519",
"1  c #422A13",
"2  c #623D1C",
"3  c #443324",
"4  c #4C3B2C",
"5  c #4B3826",
"6  c #543C23",
"7  c #5B3D22",
"8  c #543C2C",
"9  c #583A26",
"0  c #4B3D35",
"q  c #423832",
"w  c #613E23",
"e  c #623F29",
"r  c #6A411A",
"t  c #65431C",
"y  c #5E4225",
"u  c #54412C",
"i  c #5D452D",
"p  c #59482D",
"a  c #4A4237",
"s  c #46433D",
"d  c #4A433A",
"f  c #4C493E",
"g  c #564532",
"h  c #5B4633",
"j  c #5C4934",
"k  c #5C4C3B",
"l  c #574A39",
"z  c #644325",
"x  c #63452B",
"c  c #69462B",
"v  c #654B2C",
"b  c #6A4C2D",
"n  c #674826",
"m  c #704F2C",
"M  c #6B502E",
"N  c #74542E",
"B  c #7B542C",
"V  c #7E592E",
"C  c #634732",
"Z  c #644B33",
"A  c #6A4E33",
"S  c #624E3B",
"D  c #6A4E38",
"F  c #714F32",
"G  c #645035",
"H  c #6C5234",
"J  c #64513C",
"K  c #6C533B",
"L  c #6E593C",
"P  c #745434",
"I  c #7A5634",
"U  c #765936",
"Y  c #7B5935",
"T  c #73553B",
"R  c #7A563A",
"E  c #755A3C",
"W  c #7B5A3B",
"Q  c #7D603C",
"!  c #1D3745",
"~  c #2E3D44",
"^  c #233B4B",
"/  c #293B4D",
"(  c #203143",
")  c #343D42",
"_  c #3A3D42",
"`  c #29424F",
"'  c #27404D",
"]  c #37444B",
"[  c #2B4352",
"{  c #2D4956",
"}  c #374959",
"|  c #3C5158",
" . c #3B4F60",
".. c #3B5362",
"X. c #3A5564",
"o. c #444444",
"O. c #434B4D",
"+. c #524C41",
"@. c #5E5446",
"#. c #414D57",
"$. c #46575A",
"%. c #5A5A55",
"&. c #4C504B",
"*. c #6B5543",
"=. c #665B44",
"-. c #6C5A44",
";. c #655B4B",
":. c #6A5D4B",
">. c #645442",
",. c #715640",
"<. c #745C42",
"1. c #7B5D42",
"2. c #725E49",
"3. c #685F51",
"4. c #746145",
"5. c #7C6243",
"6. c #7A634A",
"7. c #786449",
"8. c #66675F",
"9. c #6B645A",
"0. c #786858",
"q. c #465B67",
"w. c #4A636E",
"e. c #586365",
"r. c #4D6974",
"t. c #4B6573",
"y. c #5E727A",
"u. c #65696D",
"i. c #676A68",
"p. c #706F69",
"a. c #73736C",
"s. c #7A766A",
"d. c #696D72",
"f. c #6D7275",
"g. c #6E7778",
"h. c #717373",
"j. c #737972",
"k. c #787A76",
"l. c #825632",
"z. c #825A35",
"x. c #815C3A",
"c. c #885830",
"v. c #80542D",
"b. c #82623D",
"n. c #815F43",
"m. c #846343",
"M. c #846A4E",
"N. c #83654D",
"B. c #856C53",
"V. c #826D5C",
"C. c #836651",
"Z. c #88725D",
"A. c #92785C",
"S. c #8B7B6A",
"D. c #877765",
"F. c #937D6A",
"G. c #927B64",
"H. c #947E70",
"J. c #93836E",
"K. c #9D846E",
"L. c #9C8C7C",
"P. c #9A8877",
"I. c #8F8376",
"U. c #A18B75",
"Y. c #A18E7B",
"T. c #A88F79",
"R. c #A7927A",
"E. c #557080",
"W. c #A59583",
"Q. c #AA9A84",
"!. c #AA9987",
"~. c #B49D86",
"^. c #B39B88",
"/. c #B5A18B",
"(. c #BBA58D",
"). c #BAA589",
"_. c #BEA794",
"`. c #BEB1A1",
"'. c #C3AD9C",
"]. c #C6B49C",
"[. c #C8B49B",
"{. c #C0AEA0",
"}. c #C5B3A2",
"|. c #CAB9A4",
" X c #C7B8AA",
".X c #CEC4B9",
"XX c #CAC1B0",
"oX c #DCCCBD",
"OX c #D5C6B8",
"+X c #E2C6AE",
"@X c #E7C9AF",
"#X c #E6D3BE",
"$X c #E3C7B1",
"%X c #D3CDC2",
"&X c #D9CFC5",
"*X c #DCD2C3",
"=X c #DDD4CA",
"-X c #DBD7C9",
";X c #EAD9CA",
":X c #FCEEDA",
">X c #F4EBDA",
",X c #FEF1DB",
"<X c #FFFBDD",
"1X c #EDE3D7",
"2X c #FBEEE1",
"3X c #F5ECE2",
"4X c #FCF3E5",
"5X c #FFFAE5",
"6X c #FEF5EA",
"7X c #FFFBEC",
"8X c #F4F2E6",
"9X c #FFFCF2",
/* pixels */
"                                                                                                                        ",
"                                                                                                                        ",
"                                                                                                                        ",
"                                                        w.r.q.E.                                                        ",
"                                                        ` ^ ` q.                                                        ",
"                                                    {           |  .                                                    ",
"                                                    {           } ..                                                    ",
"                                              ..^                   [ /                                                 ",
"                                              t.                                                                        ",
"                                          [ !                           } ^                                             ",
"                                      r.                                                                                ",
"                                      ' {                                     (                                         ",
"                                  ..r.                                                                                  ",
"                                  [ X.                                            /                                     ",
"                              ^                                                       /                                 ",
"                              ..                                                      #.q.                              ",
"                        q.*                                                               ~ |                           ",
"                        $._ $.                                                          e.] O.y.                        ",
"                    #.= o.o._ ~ w.                                                    ) ) O.o.= ]                       ",
"                  | = - q q - * = #.                                              $.] * - - % - @ O.|                   ",
"                * # % 3 o o $ @ @ # ~                                           q.+ # - % $ $ % % O X                   ",
"                o.q 5 ; 9 8 0 0 4 a &.                                          e.- d 0 3 8 8 3 6 4 d                   ",
"                a j Z z c e h h y y S I.                                        :.u i y x z z c z 7 g s.                ",
"          %.3.:.2.K R R Y I 1.T x.Y T 6.J :.:.;.:.:.:.:.:.:.:.:.:.:.:.;.:.:.-.-.E E W I x.Y I Y R 1.<.2.:.%.k.          ",
"      k.s.-.<.<.E E W I I x.P Y I Y x.W W P W T W E E E E T T E E L <.<.7.*.<.E W W Y I Y Y I W T W W W T -.0.k.        ",
"      %.L U Q P W P P b.Y N x.I Y Y R I I B z.z.I Y Y Y W W Y W W W W T T <.1.T P W W R P W W E <.1.R x.x.W <.;.g.      ",
"    j.=.W V z.I P W 1.T U Q Y Y 1.<.T W Y x.I W W W E T E T P R R P W n.1.E W W E T U E E E L K <.<.P l.l.l.W -.h.      ",
"    a.-.b.B B Y x.W T E <.H W T <.K 1.T W P W P 1.P E 5.E W W W m.x.W R R n.1.T W W 5.P H 4.7.4.<.1.W z.c.v.R -.a.      ",
"    p.8 z r t t 7 x y 6 p p 6 x x z x y , 7 z y 7 y 7 y z z y , : w , w w , 2 z n 2 : , 7 7 7 6 p i , 2 r r x g i.      ",
"    p.5 , : : : 7 x 6 S J j S C 7 z , 7 K J S S j K y y y 7 Z v D K K S D C T z 7 x D H K D j Z p i 7 2 2 : 9 4 i.      ",
"    a.k D b b H D i 8 ;X7X2X9X^.7 z D 0.6X3X9X9X6X7XF.; Z h P.7X8X9X9X6X9X9X6XL.4 {.7X6X2X9X9X2Xu x v b F A S +.u.      ",
"    h.@.K H H H K F.H. XoX;XoX'.G.A.i V.9X9X=X&X*X*XW.P.0.u W.7X8X-X%X*X*X.X;XS.a  X9X>X=X=X&XOXP.A.<.A A H K @.f.      ",
"    j.=.E Y W T 7.,X7XD.Z P x /.7XOXj S.9X4X-.Z K J .X7X_.p !.5XoX>.K H K Z H <.D ].7X}.j K Z 6.7X9XV.T W Y W -.f.      ",
"    j.=.E I z.R 4.>X7XS.T m.P (.7X%Xj F.6X:XB.E 5.G .X7X(.v Q.5XoX6.R W W x.I W A [.7X XH E R B.7X9XV.K W I z.T h.      ",
"    j.=.E R z.R 7.:X7XS.T x.b /.6X.Xj Z.9X4X*.A E G XX7X~.> W.7X;Xj T P b m.W E D }.7X XK 1.R B.7X9XV.K W I z.T h.      ",
"    j.=.E Y z.Y 6.,X7XS.P W b (.9X.Xj F.7X8X;X+X+X#XW.J.A.v !.9X2XOX$X@X@XM.T 5.D }.7X XD W P B.7X9XV.T E Y Y ,.h.      ",
"    s.=.E I z.I 6.:X7XS.T W A (.6X.Xh D.7X7X7X5X5X5XF.p Q H !.9X7X7X<X<X<XA.b E H ].7X XH W R B.7X9XV.T E Y x.,.h.      ",
"    s.-.E I Y R 6.:X7XS.T n.A ).7XoXJ Z.7X8X0.V.C.N.6.6.W v W.9X*X0.6.5.5.E E 5.H [.5X|.H W P M.7X9XV.K E W W *.h.      ",
"    a.-.E Y Y R 6.:X7XD.T 1.K _.4XOXi J.7X8X0.*.T T E T E H L.7X-X-.H 5.L 4.5.T H [.5X].M Y P M.5X7XV.T 1.W W *.g.      ",
"    j.-.<.W W E 6.,X7XD.C D i ^.7XOXZ D.9X6X0.<.1.W E E m.D W.9X*Xk K G G G v 1.H [.5X|.H Q W B.7X7XV.,.1.E W -.f.      ",
"    a.j K H b b K /.`.!.T.~.Q./.'.U.Z 0.9X3X:.H P b F H T y Y.7X1XL.^.R.!.!.~.B.8 ].7X}.9 P x C.7X7X6.Z v H b S u.      ",
"    8.3 6 > < , 7 1 o #X5X,X5X~.. > ; *.9X4Xu > : < w w < 1 J.7X4X7X7X4X7X4X5XZ.o _.7X'.6 7 < Z 4X4XK > y > , 5 u.      ",
"    a.g Z v v b A C j J.U.T.U.V.b A C *.P.L.K x n z c c A z 6.U.L.Y.K.U.Y.P.^.<.y Z.W.V.z F C K Y.Y.D x x b z u u.      ",
"    a.k K A b b b Z K p y y i i v b Z K h u H b M m F x D K D 6 p 6 x x i i y A D x i i b b b A y y A F z H b S d.      ",
"    k.>.<.T U U n.P 1.1.E M 1.6.5.E E T W E H W U P W R T T E E <.5.W P H E U W P U <.T Y N E T T 1.T R W P P -.d.      ",
"    s.*.<.E W x.Y R 1.E W m.A E E P E W Y x.W P W P E E E E W W E E P b.5.E P Y Y W E T Y Y b.W E T R W W W P *.f.      ",
"    D.<.<.T I B z.x.P W N I W W P m.Y I V B x.W W E W U P W W W W W x.R T E Y W W P T E x.I U E 1.H x.x.N W W 2.f.      ",
"    k.:.1.E Y Y B x.W U Q I Y W 1.b W Y B z.W R W W U U W W R R R W W W E W W P W P W E W R T W P m.B I x.P T *.d.      ",
"    k.9.:.T b.B Y Y Y Y Y Y U Y W W W Y Y Y W W W W W W W W W W W W W W W W W W W W W W W W W W Y z.B z.I E <.:.h.      ",
"    g.f >.<.P Y Y Y W W E E W W W W W W W W W W W W W W W W W W W W W W W W W W W W W W W W W W P x.Y Y W 1.-.+.i.      ",
"    u.& k 6.W R W W W W W W W W W W W W W W W W W W W W W W W W W W W W W W W W W W W W W W W W W E T T 4.-.l &         ",
"        0.8 Z C i i h h h h h i i i i i i i i i i i i i i i i i i i i i i i i i i i i i i i i i j g h g l f 8.          ",
"          - f 0 d d s s s s d d d a a a a a a a a a a a a a a a a a a a a a a a d d a a a a a d f s f f s s             ",
"                                                                                                                        ",
"                                                                                                                        ",
"                                                                                                                        ",
"                                                                                                                        ",
"                                                                                                                        ",
"                                                                                                                        ",
"                                                                                                                        "
};
