/* XPM */
static char *_3d664cc39ea43c6af3918231d5baf66GCG3O1LZs9J26Fdx[] = {
/* columns rows colors chars-per-pixel */
"60 60 241 2 ",
"   c #010101",
".  c #0B0101",
"X  c #040904",
"o  c #0B0A05",
"O  c #03020A",
"+  c #0B040A",
"@  c #03090B",
"#  c #0B0A0A",
"$  c #130301",
"%  c #1B0200",
"&  c #140903",
"*  c #1A0B02",
"=  c #13050B",
"-  c #130C0B",
";  c #1B0A09",
":  c #1A070B",
">  c #1B130C",
",  c #191207",
"<  c #060C11",
"1  c #160F11",
"2  c #1B1212",
"3  c #151515",
"4  c #210401",
"5  c #2B0300",
"6  c #230B01",
"7  c #260F06",
"8  c #2D1402",
"9  c #28170B",
"0  c #33170A",
"q  c #2C1B14",
"w  c #261914",
"e  c #331C13",
"r  c #381D16",
"t  c #342213",
"y  c #37241B",
"u  c #332214",
"i  c #2B2421",
"p  c #392D28",
"a  c #3E3127",
"s  c #42180B",
"d  c #492719",
"f  c #46321B",
"g  c #5A2D0F",
"h  c #472C23",
"j  c #46382B",
"k  c #55392B",
"l  c #4B3C32",
"z  c #463C38",
"x  c #523E33",
"c  c #5E3930",
"v  c #613C32",
"b  c #733E2E",
"n  c #75451F",
"m  c #53432B",
"M  c #4B4634",
"N  c #5D4A32",
"B  c #5D4C3A",
"V  c #564538",
"C  c #5F512C",
"Z  c #65562E",
"A  c #77572A",
"S  c #6B4B34",
"D  c #684A39",
"F  c #62513C",
"G  c #6C593A",
"H  c #735A33",
"J  c #7C5C35",
"K  c #79593A",
"L  c #734630",
"P  c #72613D",
"I  c #7D633D",
"U  c #6E623C",
"Y  c #5B4943",
"T  c #575545",
"R  c #644C43",
"E  c #694E40",
"W  c #6C5A43",
"Q  c #635149",
"!  c #6B574B",
"~  c #685647",
"^  c #725A42",
"/  c #7C5C46",
"(  c #7F5D4A",
")  c #755848",
"_  c #765D53",
"`  c #6E554C",
"'  c #696249",
"]  c #7C6344",
"[  c #74644C",
"{  c #7B644B",
"}  c #726646",
"|  c #6B6655",
" . c #7C6452",
".. c #7D6B54",
"X. c #7C6859",
"o. c #75715A",
"O. c #7D6960",
"+. c #87552C",
"@. c #845B3D",
"#. c #8F5D3B",
"$. c #835835",
"%. c #955B36",
"&. c #8F512A",
"*. c #836639",
"=. c #9A6538",
"-. c #B46C3C",
";. c #835C4C",
":. c #895D46",
">. c #935D45",
",. c #815B52",
"<. c #826444",
"1. c #8B6243",
"2. c #806947",
"3. c #8B6C45",
"4. c #846B4D",
"5. c #88644C",
"6. c #93644C",
"7. c #9E6D4D",
"8. c #986746",
"9. c #8B734A",
"0. c #8D7847",
"q. c #97754B",
"w. c #8D6B52",
"e. c #836D5D",
"r. c #856855",
"t. c #936652",
"y. c #926A54",
"u. c #9A6A55",
"i. c #8A7054",
"p. c #84745D",
"a. c #897459",
"s. c #977957",
"d. c #A66A44",
"f. c #A57958",
"g. c #B77757",
"h. c #AB714D",
"j. c #877767",
"k. c #947864",
"l. c #8D7871",
"z. c #B37C63",
"x. c #AD7F65",
"c. c #C17D50",
"v. c #C07F63",
"b. c #A18057",
"n. c #9B8B6C",
"m. c #978867",
"M. c #958474",
"N. c #9F9379",
"B. c #A58A67",
"V. c #B78867",
"C. c #A8966D",
"Z. c #BB9469",
"A. c #A7967A",
"S. c #BD9C74",
"D. c #BD9D7C",
"F. c #B69679",
"G. c #A38D75",
"H. c #ADA876",
"J. c #B9A57A",
"K. c #C88659",
"L. c #CE8E5A",
"P. c #C88C65",
"I. c #C89768",
"U. c #DC9665",
"Y. c #D3946C",
"T. c #D89669",
"R. c #C99974",
"E. c #D49B73",
"W. c #D79A77",
"Q. c #E0996A",
"!. c #C3A37B",
"~. c #C5A476",
"^. c #D4A07A",
"/. c #DBA973",
"(. c #E5A373",
"). c #AB9C82",
"_. c #B79A84",
"`. c #ACA488",
"'. c #B8A787",
"]. c #BDB289",
"[. c #BEAA94",
"{. c #BCA594",
"}. c #D59C83",
"|. c #C7A887",
" X c #C7B48A",
".X c #DCB688",
"XX c #C1AB92",
"oX c #C9B797",
"OX c #D6B08C",
"+X c #E3A885",
"@X c #E7B58C",
"#X c #C8BAA3",
"$X c #CBC698",
"%X c #D8C79D",
"&X c #E6C59C",
"*X c #CBC6A8",
"=X c #DAC6A8",
"-X c #DED7AC",
";X c #DAD6BD",
":X c #CECAB4",
">X c #E5CAA4",
",X c #ECD3AB",
"<X c #ECD7AC",
"1X c #F8D5A8",
"2X c #E3D2B1",
"3X c #ECDAB5",
"4X c #ECDABB",
"5X c #E7D5B7",
"6X c #F6DBB7",
"7X c #F6E3AD",
"8X c #EAE2BD",
"9X c #FDE3B5",
"0X c #FBE4BC",
"qX c #F7E4BC",
"wX c #FFF1BE",
"eX c #D9DAC4",
"rX c #EEDDC4",
"tX c #D9E1CC",
"yX c #EDEEC6",
"uX c #FEE5C5",
"iX c #F6EAC2",
"pX c #FCECC3",
"aX c #F4EBCD",
"sX c #FDEBCB",
"dX c #F7E3C8",
"fX c #FEF3C5",
"gX c #F5F3CC",
"hX c #FEF3CC",
"jX c #FFFBCD",
"kX c #F6F5C7",
"lX c #FCEDD2",
"zX c #F6EDD0",
"xX c #F4F2D2",
"cX c #FEF5D3",
"vX c #FEFBD4",
"bX c #FEF6DB",
"nX c #FEFDDB",
"mX c #F6F8DB",
"MX c #EEEFD2",
"NX c #FEFEE2",
"BX c #F8FDE6",
/* pixels */
"                                                                                                                        ",
"                                                                                                                        ",
"                                                                                                                        ",
"                                                                                                                        ",
"                                                                                                                        ",
"                                                                                                                        ",
"                                                                                                                        ",
"                                                                                                                        ",
"                                                                                    O                                   ",
"                                                                                                                        ",
"                                                                                O                         O             ",
"                                                                                                                        ",
"                                                                                      O O X O O O O O                   ",
"                                                                                O O O                 O                 ",
"                                                                                    # # O     O #                       ",
"                                                                                  - i p a a a a i 2                     ",
"                              .           O O                         . =           X.k.6.6.@.i.e.* . $                 ",
"                  O O   2 i ; . .         @         + . 2 i >   X   .       @ O o . ) :.>.d.=.7.w.0 e 6 . . o           ",
"                O     . z e.V % .       O @   O O     . Y j.l       .   .   @     . ) y.z.E.I.R.}.;.;.r $ .             ",
"                    & * B k.S % ;                 . & . l j.R * >   .   +   O     ; ! 5.x.}.E.W.R.u.u.d 4 % .           ",
"                  > Y E s.D.f.L R : $ 1     o     9 R ` {.dXXXN R * .   O     +   . 9 8 L 7.g.P.W.v.W.>.D k $ = .       ",
"                  * _ r.V.W.P.h.,.4 $ $ . . .   & $ V ) oXnX2X{ r.*     @     + -   . $ k t.z.}.T.Y.+Xf.t.v $ . + O O O ",
"                & 6 / 1.V.E.g.&.t.v h k x V l l j x [.#X4XhX%X{ _ $     @ @     +   o . t d b g.g.P.Y.7.t.c % = + O O O ",
"        O O     . % @.#.K.Q.K.%.#.6.y.5.a...W p.p...dXcXbXnX%XP r.* .     O         o   & $ s 6.%.L.I.8.w.k $ . + O O O ",
"    O   O @   . $ 4 $.%.K.U.K.-.d.h.h.f.B.B.n.n.m.n.sXcXhXvX$X} ) 9 .     @ @ @ O       o & d :.=./..Xq.4.V . + O O O O ",
"    O   O @   & $ 5 #.%.c.U.Q.L.(.Y.E.1XvXcXcXbXbXnXaXcXvXkX-X}  .*   X @ @       @ @     . r s.*.7XjXB.} B .   O O O O ",
".     O O @   * 8 5 +.=.K.U.U.U.U.L.I.1XjXhXcXcXgXNXxXnXnXgX$X} { % *   o X             > * e a.0.7XjXC.[ V     O O O O ",
".       O O   9 ( @.Y.Y.Y.K.K.P./.I.I.1XhXhXnXnXaXxXxXxXvXnXgX8X5Xr.X.t $ $ . . o o   o l ! M.lXiXjXpXn.| M   # O @ O O ",
".     O @ O . q y.8.P.Y.W.+X+X^.I.Z.Z.,XvXcXNXmXNXNXmXnXxXgXvXnXdXi.{ 8 $ $ . $ . $ . . j ..A.nXbXcXNX`.j.T o           ",
"    +   O   . 6 :.8.E.E.&.g J |.Z.&X<XpXvXmXBXeXM T ;XNXnXnXkXnXqX<.<.K S S D B B B F D G.=X*XnXaX`.).j 9 >   o         ",
"    +   O + $ 0 y.#.P.W.n 5 g |.|.sXsXbXmXBXBX:XX X eXbXxXnXiXvX0X3.*.7.6.:.<.^ ..] ( / oXnXvXnXlXe.X.t $ .   o         ",
"    +   + w y k :.8.I.^.#.g w.=XXX'.N.;XBXBXBXtXo.T MXNXxXhXnXpX7X0.$.8.#.f.D.J.F.F.'.G.=XnX-XoX#Xl Q w . .             ",
"O O   . . x l.w.$.7.R.R.|.S.oXnXrX& & *XNXxXmXBXBXmXmXmXvXvXvXvX7X0.*.*.$.~.fXfXjXjXnXvXhXnX*X' | o   #                 ",
"< O     $ h E ;.6.1.R.S.!. X=X4X5X9 * '.aXzXNXNXMXnXNXnXnXnXhXhX9X0.*.0.+.~.fXwXfX3XkXgX8XaX#X' T 3 # #                 ",
"@   #   . * % s y.5.6XuXsX0X XP ..[ p...G '.bXgXxXNXnXgXcXhXpXhX0XJ A R.R.@XfX9XZ.!.iXvX'.r.N $ >         # # o         ",
"    #   . * % 6 r.( uXuXnXnX%XP } [ ..G G oXnXhXnXbXnXcXvXnXvXfX9Xf.$.Z.E.@X0X1X~.R.qXnX_.;.S $ .         O             ",
"        . a _ Y e 8 k.k.=XcXsX=X4X=X5X4X>X3XhXvXvXgXvXnXcXvX-Xs.f.&X&XV.d.P..XS.R.S.3XcXF.;.^ 4 . O O   O               ",
"        . z l.| . * !  .=XbXbXnXNXbXbXvXvXvXvXhXnXvXnXnXvXvX$XZ 9.hXjXb.n 7.~.!.Z.!.sXnX_./ D $ .       O O   #         ",
"          i z p   ; a j M.[.'.'.[.'.'.|.|.J.J. X'.'.'.'.].].].'.J.iXjX%X!.~.C.J.&XoX8XhX'.r.W . o   O                   ",
"    o     +   +   . . . l X. .^ G 4.] H J $.H H H G Z G U C m.vXnXyXkXjXhX,XH.H.fXpXnXnX).W F $     #     O O           ",
"                O     ; j Q ! ~ F G S ] 3.q.*.9.B.m.C.n.C.m.].vXgXnXnXyXhX<XH.$XfXjXyXnX`.[ F .                         ",
"            O O         . $ & $ $ $ 6 S 3.1.3.s.hXqXhXhXvXhXhXnXvXyXnXvXcXvXfXvXvXjXjXnX).[ F .                         ",
"                          . . . & . $ G <.J q.q.vXqXvXhXhXnXnX8XnXzXbXhXuXuXpXpXpX<XhXnXA. .E $                         ",
"                        . + . . . . . G i.D.0X,XI s.3XvXcXsX=Xi...j.p.i.s.s.9.0.s.q.3XbX_.w.D $ .                       ",
"                O               o & . B / D.vX,XI 4.3XnXlXcX2X{ ..j.{ { 1.@.I H J J ,XvXF.r.D $ .                       ",
"                            + #     . Q { '.cX,XH 2.4XbXoXA.a.0 f t y ^ :.B.>X X3.3.3XbXF.( D % .                       ",
"O O                           O O   & ! r.XXbX6X] 9.dXbXA.W m . $ . $ D 5.D.cX6XJ I 2XnXXX .E .                         ",
"O                       +       O     j m m.=X|.<.2.3XbX'.[ N & . $ . N w.B.%X XS.C.8XbX'._ E .                         ",
"                                O   + . . f 2.I 3.3.qXbXA.p.B . . & . T k.] H 9.hXhXbXcX{.e.Q .                         ",
"                                O   o $ * f K I *.] >XsXA.` x $   . . V W { s.s.6X6XuXlX_.! Y .                         ",
"                                O O   . . & 8 t s.^ i.a.t . * . # + . > & f r.K 4.] r.e.h $ ;                           ",
"                                  O     . . $ 6 e.X.X.j.l $ &         . . j j.e.a...e.O.j $ &                           ",
"                                  O     - & $ 7 e y w q &           O . . & q q 9 q e i 2 . = +                         ",
"                                  # O     . . . . $ . . o   o O         1 . . $ $ $ . .                                 ",
"                                  O       + + + +               O             . . . + . - #                             ",
"                                              O O   # + O X         <       #     +           #                         ",
"                                                O O                                                                     ",
"                                                                                                                        ",
"                                                                                                                        ",
"                                                                                                                        "
};
