/* XPM */
static char *_d2c66603ea5434ac45f8a4c1bfab66bT0ygyBoaamyrKfaN[] = {
/* columns rows colors chars-per-pixel */
"60 60 235 2 ",
"   c #020202",
".  c #0A0402",
"X  c #010802",
"o  c #0C0904",
"O  c #050408",
"+  c #0A0509",
"@  c #0D0909",
"#  c #120301",
"$  c #1A0500",
"%  c #130B03",
"&  c #1C0C03",
"*  c #130D0A",
"=  c #1B0C0A",
"-  c #150609",
";  c #1A1206",
":  c #15120D",
">  c #1C130C",
",  c #1C190D",
"<  c #161204",
"1  c #1A0D12",
"2  c #1C1412",
"3  c #1B1812",
"4  c #260C04",
"5  c #22140C",
"6  c #29130B",
"7  c #231B0D",
"8  c #271504",
"9  c #321E08",
"0  c #241613",
"q  c #231B14",
"w  c #2A1C14",
"e  c #231C1A",
"r  c #281618",
"t  c #311D14",
"y  c #2D220B",
"u  c #2B2315",
"i  c #25211C",
"p  c #2B221C",
"a  c #2E2B1C",
"s  c #31231C",
"d  c #322A1B",
"f  c #382618",
"g  c #3B3118",
"h  c #2C2B21",
"j  c #3C2B2C",
"k  c #362824",
"l  c #3B3523",
"z  c #33312A",
"x  c #3C342B",
"c  c #3C372A",
"v  c #3E3933",
"b  c #421E10",
"n  c #422519",
"m  c #48351C",
"M  c #4F2817",
"N  c #462B24",
"B  c #42352D",
"V  c #443C2D",
"C  c #473928",
"Z  c #513B27",
"A  c #433433",
"S  c #4C3C34",
"D  c #493A36",
"F  c #543D32",
"G  c #454034",
"H  c #4B433A",
"J  c #4C4639",
"K  c #5B4236",
"L  c #554739",
"P  c #5B5238",
"I  c #45402D",
"U  c #6C422E",
"Y  c #6A4635",
"T  c #68553D",
"R  c #795337",
"E  c #78522D",
"W  c #494440",
"Q  c #594A44",
"!  c #595648",
"~  c #604F4B",
"^  c #635D4B",
"/  c #675749",
"(  c #755A48",
")  c #655D53",
"_  c #6C5E54",
"`  c #735E53",
"'  c #6C614D",
"]  c #6E694D",
"[  c #73664A",
"{  c #6E6954",
"}  c #6B655C",
"|  c #6A6358",
" . c #726A54",
".. c #71665A",
"X. c #746B59",
"o. c #7B695D",
"O. c #756353",
"+. c #7D7458",
"@. c #7B6E62",
"#. c #7A7369",
"$. c #6F6A64",
"%. c #815C38",
"&. c #825C49",
"*. c #8F664B",
"=. c #92684C",
"-. c #97734D",
";. c #886B59",
":. c #976D58",
">. c #84795C",
",. c #9D7651",
"<. c #967758",
"1. c #8F734B",
"2. c #857C62",
"3. c #867669",
"4. c #987864",
"5. c #807E71",
"6. c #A77C63",
"7. c #83805F",
"8. c #A5845E",
"9. c #8B8467",
"0. c #948D6C",
"q. c #988869",
"w. c #8A8473",
"e. c #8D897A",
"r. c #9D8D7D",
"t. c #968975",
"y. c #9A9574",
"u. c #9D997B",
"i. c #9C9578",
"p. c #AD8464",
"a. c #AB8568",
"s. c #B38D6B",
"d. c #AA916A",
"f. c #B7946C",
"g. c #AC8B74",
"h. c #A58572",
"j. c #B48D73",
"k. c #A29A7C",
"l. c #A99B7A",
"z. c #BC9374",
"x. c #BC9B74",
"c. c #BC957B",
"v. c #B39175",
"b. c #B3A37D",
"n. c #C49B75",
"m. c #C49A7B",
"M. c #CA9E7B",
"N. c #C19572",
"B. c #C7A47D",
"V. c #9C9486",
"C. c #9E9488",
"Z. c #A29B82",
"A. c #A49C8B",
"S. c #AA9C8B",
"D. c #A79884",
"F. c #BD9B83",
"G. c #ABA284",
"H. c #AAA58A",
"J. c #ABA68B",
"K. c #B2AA8D",
"L. c #BCAE8B",
"P. c #B3A686",
"I. c #ACA595",
"U. c #BBAC96",
"Y. c #B6A796",
"T. c #B6B192",
"R. c #BFBB9B",
"E. c #BAB395",
"W. c #B5B18E",
"Q. c #B8B1A4",
"!. c #C69F85",
"~. c #C7A986",
"^. c #C7B28D",
"/. c #CAAC96",
"(. c #C4BC9C",
"). c #C7B596",
"_. c #D5BB97",
"`. c #C6BEA3",
"'. c #CBBCA6",
"]. c #C8B9A5",
"[. c #C5BFB1",
"{. c #D9C29D",
"}. c #CCC49F",
"|. c #E2C69F",
" X c #C5C1A3",
".X c #CAC4A4",
"XX c #CAC5AB",
"oX c #CDCBAB",
"OX c #D5C2AE",
"+X c #D3CCAD",
"@X c #D7C7A8",
"#X c #DDD2AF",
"$X c #C9C5B2",
"%X c #D4CCB2",
"&X c #DBCCB5",
"*X c #DBCEBB",
"=X c #D5C5B2",
"-X c #D5D2B3",
";X c #DBD4B5",
":X c #DCD3BB",
">X c #DAD6BA",
",X c #E2CAA7",
"<X c #E9D4AE",
"1X c #E6CEB6",
"2X c #E9D9B8",
"3X c #F1DBB8",
"4X c #EAE1BD",
"5X c #F3E2BD",
"6X c #DCD3C1",
"7X c #DBCFC1",
"8X c #E3DEC2",
"9X c #ECDEC6",
"0X c #E5D8C3",
"qX c #F3DFC7",
"wX c #E5E1C1",
"eX c #E9E4C6",
"rX c #EAE5C9",
"tX c #EDEACB",
"yX c #EAE7C7",
"uX c #F4E3C3",
"iX c #FCE4C4",
"pX c #F3ECCE",
"aX c #FBEACA",
"sX c #F7E7CA",
"dX c #FEF1CD",
"fX c #F4EDD1",
"gX c #FCEED5",
"hX c #F3E7D1",
"jX c #F5F2D2",
"kX c #FBF5D4",
"lX c #FEF5D9",
"zX c #FEFBDC",
"xX c #FDF8D7",
"cX c #EEEDD1",
"vX c #FFFFE3",
/* pixels */
"O O O O O O O O                         .                       + + . O                                                 ",
"O O O O O O O O                                                                                                         ",
"O O O O O O O O                                                                                                         ",
"O O O O O O                                           . . . .   . .                                                     ",
"O O O O                                 O               . . .                                                           ",
"O O O O                               O   O                                                                             ",
"                O               O O O O O O                                                                             ",
"                O O           O O O O O O       o o . .   .   . .                                                       ",
"                        O O O O O O O O . . . . o . . . o o o .     . o                                                 ",
"                          O O O . O O O . . o * : : 2 > 3 > % o .   . o                                                 ",
"                        O O O O .           * 3 k x v B c l u ; % . . o .   .           O O                             ",
"                        O O O O           . : p Q ) } | ) Q V s > o o o .             O O O                             ",
"                    O O O O O O       . . . ; p ) #.e.w.3.o./ S s ; o o .           . . O O O                           ",
"                    O O O O O O       o o o ; u ) 3.r.V.D.r.3._ B q % o . .         . . O O O                           ",
"                O O O O O O O O     . % % o % q S ) 3.V.Y.).S.3.H p % # . . o . . . . O O O O                           ",
"                O         O O   o   . % % . # 8 t S O.t.U.OXU.w.L p % # o . o o   . . O O O O O                         ",
"                  .       .   .   o % > w 8 & 8 9 Z O.r.].&X].D.O.C 5 & % % , : *     . O O O O                         ",
"                  O     . .   .   % 5 s f y 8 9 m T q.U.&X9X1X].r.' C y ; u z h 3     . O O O                           ",
"                  O     o .   . . 5 f S K Z m m ( q./.1XsXgXhX0XOXk.' C d G ! Q z :       O .                           ",
"                        o . . # & f K ` ;.( T T g./.3XaXgXlXlXgX9X].t.^ L { w.5.! z : o                                 ",
"            O O         o . . & t F O.4.h.4.:.<./.,XiXiXuXuXsXsX9X&XU.t.2.C.Q.I.#.J i :                                 ",
"            O O         o . # 4 n Y ;.g.c.j.a.a.~._.,X{._._.@X@X'.`.(.T.K.XX6X$Xe.! h : o   . .                         ",
"X X                   . # # # 4 n Y :.g.c.c.j.z.s.f.f.d.d.l.l.l.k.Z.E.`.+XyXrX$Xe.! a , o     .                         ",
"X X                 . o # # # 4 b U *.a.c.z.z.z.,.,.-.1.<.q.q.q.9.0.J.XXwXlXcXXXw.! a , o   . .                         ",
"X X X X X         . . . # # $ 4 b U *.6.z.M.n.N.p.8.8.d.b.^.).).E.(.+XwXjXxXyX Xw.^ a < o . . .                         ",
"X X X X X         . . . # $ 4 6 M R :.p.N.M.M.M.f.f.f.B.{.<X3X4X2XwXeXpXxXzXtX+Xu.X.V u = o . .                         ",
"    X X           . . # $ 4 6 n Y *.6.j.m.M.M.B.n.f.f.~.,X5XdXkXxXkXjXjXkXzXjX-XT.t.' V p = # .                         ",
"                  . # # $ 6 N K &.6.z.m.M.m.N.N.n.x.x.~.{.5XaXdXkXpXtXeXwXpXjXyX-XE.w.! l 0 = -                         ",
"                  o # # $ 6 N / :.j.!.~.m.p.,.-.z.x.~._.<X5XdXxXkXtX;X XT..XyXxXjX-XC.) x 0 = #                         ",
"                  o # # $ 6 C ( 4.j.!.m.a.=.E E s.~.|.<X3X5XaXzXxXeX Xy.9.u.-XkXvX8XA.| B r = .                         ",
"                  o # $ 6 f K ` 4.g.F.c.a.=.%.%.x._.3X3X{.).#XtXkXwX.Xu.9.u.+XjXzX6XA...H j r -                         ",
"                . . # = k F / ;.4.g.!.F.v.8.<.p._.<XiX,Xl.q.P.+XfXtX2X.XK.R.wXxXfX-XA.@.~ Q j 0                         ",
"                . . # 0 B Q ` 3.h.F././.~.~.^._.3XiX3XL.>.T >.K.8XjXpXeXwXtXzXzXpX=XS.3._ ~ A 1 .                       ",
"                . . # = s A ~ o.t.Y.OX1X@X@X,X<X3X<X).q.[ P ' w.`.wXjXkXjXkXzXlXfX%XS.@.Q D k - .                       ",
"                . . . # 5 k S / t./.2XaXqX3XuXaXdX<XL.q.>.+.>.9.J.-XpXzXzXzXvXkXhX=XV.| D j r + .                       ",
"                . . . - r k A L ;.k.OXqXaXaXaXkXsX#XL.l.G.G.k.u.R.>XpXxXzXzXxXrX%XI.@.Q A j k 1 .                       ",
"            .   + o . 2 j D A B S ` D.OXqXsXaXaXdXyX;X#X2X2X;X%X>XtXtXpXfXfXrX%XV.X.H x A D A e o                       ",
"            . . . . . 2 j A j s w C o.S.'.+X@X.X.X}.(.(..X.X`. X`.%XXXoX%X%XXXH.X.J p w k A j 2 o                       ",
"            . .   . . - q p 0 > & w S  .w.i.k.k.y.k.u.y.k.k.u.Z.u.G.u.u.Z.Z.t.X.J d ; = 0 e 0 + .                       ",
"            . .   @ + . - = = = o % 7 C P  .>.9.9.0.0.0.y.y.0.0.t.i.9.2.+. .^ V u ; o o * 1 1 . .                       ",
"          O . . .   . . . . - - . . & 7 l P ] 0.u.E.R.W.T.T.T.R.E.U.S.9.' L l u & % o . . o +                           ",
"        O O . . . . . . . . . # o . % ; d J ] y. X4XyX>X;X+X-X8X9X2X`.r. .J u ; % % o . . o .                           ",
"        O O O O           . . . .   o o , V ] Z.-XjXkXwX-X.X+XeXlXgX*XS. .V 7 o o % % . . . O O                         ",
"          O O O             .   . . o . < l { H.;XjXpX+XT.k.K.%XhXhX*XS.X.V 7 o . o o o . . . .                         ",
"        O O O O . . .       .       o . < l { H.>XeX;XK.9.] 2.K.:X9X6XI.X.V 7 . . . o @ . O O . O                       ",
"        O O O O . . . . .   .       . . > c { H.%X-XE.>.P m P 2.].*X*XI.X.V 5 .   . o + O O O O O                       ",
"        O O O O . O . . . . .   .       , V { G.:X+XG.[ C y m [ S.'.*XI...B 7 o .   o + O O O O O                       ",
"          O O O O   . . .       .       3 G ..A.:XXXi.T g 8 f T D.[.7XY...B q % .   . + O O O O O                       ",
"                                . o     2 z ) e.[.$XA.^ l 7 d ' A.Q.Q.V.) x 3 o     . . . O O .                         ",
"                                . o     @ i H } A.I.e.! c u l | e.C.V.#.W i *       . O . O O O                         ",
"                                . o     . * i v } #.| J c a l ! } $.} W h * o       O O . O O                           ",
"                                . + .   o . * e v H D x a q u x H H v p : o . . . . . . O   O                           ",
"                                O . O . +   . * e i e q > % % > p p e : o o o o + . O       O O                         ",
"                                O O   O + o   o @ o * * .   . . = * % o . . o . . .       O O .                         ",
"                                O O O   + .   o o   . o .   . . o .                     O . . O                         ",
"                                O O O O O .   . o   o @ o . @ o o .                   O O O . O                         ",
"                                O O O O . . . . . . . . + o . .                     . . O                               ",
"                                . . O . . . . . . . . . . + + .                     . . O                               ",
"                                    O O O O O O O O O O O O O . . O . O O O       O O O O O                             ",
"                                                O O O O O O O O O . . . O O         O O O O O O                         "
};
