/* XPM */
static char *_bf552ffa4a74fc8a6c9b43fbb91cbc9WUJ17aPfOKlQEXIF[] = {
/* columns rows colors chars-per-pixel */
"60 60 239 2 ",
"   c #010101",
".  c #0B0201",
"X  c #030804",
"o  c #0C0904",
"O  c #03040A",
"+  c #0B030B",
"@  c #03090B",
"#  c #0C0A0B",
"$  c #120201",
"%  c #1B0100",
"&  c #130902",
"*  c #1B0B03",
"=  c #130B0C",
"-  c #140708",
";  c #1B150A",
":  c #060711",
">  c #1D1211",
",  c #181716",
"<  c #220C01",
"1  c #260703",
"2  c #261406",
"3  c #29160C",
"4  c #311307",
"5  c #241912",
"6  c #2A1713",
"7  c #351E17",
"8  c #310600",
"9  c #2C2119",
"0  c #32241C",
"q  c #3C2D1C",
"w  c #372418",
"e  c #372A24",
"r  c #3D342A",
"t  c #3A3633",
"y  c #48230D",
"u  c #472617",
"i  c #4A371A",
"p  c #56301E",
"a  c #552A11",
"s  c #6E3719",
"d  c #562D23",
"f  c #463224",
"g  c #4C3325",
"h  c #453829",
"j  c #563529",
"k  c #473B34",
"l  c #482624",
"z  c #623D2A",
"x  c #7D4014",
"c  c #4D4837",
"v  c #584839",
"b  c #595131",
"n  c #755A2B",
"m  c #674A39",
"M  c #744836",
"N  c #6B583A",
"B  c #765C33",
"V  c #7E553B",
"C  c #765837",
"Z  c #654F26",
"A  c #6A623A",
"S  c #746038",
"D  c #7A602F",
"F  c #594D45",
"G  c #5B5448",
"H  c #6C5A44",
"J  c #6C544A",
"K  c #6B5A4A",
"L  c #685346",
"P  c #755B44",
"I  c #7B5D44",
"U  c #735B4B",
"Y  c #795A48",
"T  c #6B5A52",
"R  c #725448",
"E  c #686349",
"W  c #74624B",
"Q  c #7B634C",
"!  c #796243",
"~  c #6B6656",
"^  c #736355",
"/  c #7D6452",
"(  c #7B6B55",
")  c #7E6C5B",
"_  c #786657",
"`  c #7D7359",
"'  c #737152",
"]  c #796A61",
"[  c #7F7462",
"{  c #825C3C",
"}  c #8A5C36",
"|  c #945C3A",
" . c #915328",
".. c #846336",
"X. c #876339",
"o. c #9D633C",
"O. c #91643D",
"+. c #A6663C",
"@. c #855E44",
"#. c #895C48",
"$. c #925A41",
"%. c #8B6543",
"&. c #84654A",
"*. c #8B664E",
"=. c #866846",
"-. c #9A6643",
";. c #936C45",
":. c #9B6A4B",
">. c #966548",
",. c #947E4D",
"<. c #92764A",
"1. c #826653",
"2. c #8D6653",
"3. c #856C55",
"4. c #8B6D55",
"5. c #81655C",
"6. c #836B5B",
"7. c #8A6D5B",
"8. c #9C6D52",
"9. c #936A56",
"0. c #8B725C",
"q. c #887A59",
"w. c #957557",
"e. c #80724B",
"r. c #A26847",
"t. c #A7744B",
"y. c #B7754A",
"u. c #A8765B",
"i. c #B87955",
"p. c #826F68",
"a. c #8A7567",
"s. c #957A67",
"d. c #837B75",
"f. c #AE7C65",
"g. c #8B845C",
"h. c #9D815C",
"j. c #98825A",
"k. c #BE8051",
"l. c #8C8763",
"z. c #8E8668",
"x. c #978468",
"c. c #9A9374",
"v. c #A58865",
"b. c #B8876A",
"n. c #A89168",
"m. c #BA9469",
"M. c #B58871",
"N. c #A99878",
"B. c #B59A77",
"V. c #AC8E72",
"C. c #BBA57A",
"Z. c #C9875B",
"A. c #D98D59",
"S. c #DD925C",
"D. c #D69157",
"F. c #E4935B",
"G. c #E29559",
"H. c #C88B67",
"J. c #C9966A",
"K. c #D69465",
"L. c #DC9464",
"P. c #D9976A",
"I. c #CD9A73",
"U. c #CB9378",
"Y. c #D59974",
"T. c #DC9B74",
"R. c #DB9A77",
"E. c #D38F68",
"W. c #E49963",
"Q. c #E49C6D",
"!. c #E39666",
"~. c #E39C72",
"^. c #C6A67C",
"/. c #D8A57B",
"(. c #B79D85",
"). c #A59D86",
"_. c #BDA384",
"`. c #BDAB8B",
"'. c #B7A986",
"]. c #B8B08D",
"[. c #C89A8A",
"{. c #E09E84",
"}. c #C4A786",
"|. c #D7A782",
" X c #C5B48D",
".X c #D3B888",
"XX c #C8AB91",
"oX c #C6BA98",
"OX c #D9B797",
"+X c #E5BF9A",
"@X c #D6BDA2",
"#X c #CAC19A",
"$X c #D9C59E",
"%X c #E2C29D",
"&X c #E9C59A",
"*X c #CDC6AA",
"=X c #D9C7A5",
"-X c #D6C8B4",
";X c #DCD5BA",
":X c #E3C9A8",
">X c #EDD4A8",
",X c #E7CBB2",
"<X c #E6D5B5",
"1X c #F4D9B6",
"2X c #F4D9BA",
"3X c #F8D8B9",
"4X c #F0C9AC",
"5X c #ECE4BE",
"6X c #F2E4BE",
"7X c #FCEBBD",
"8X c #FEE4BE",
"9X c #D9D8C3",
"0X c #F8DEC2",
"qX c #E3DECA",
"wX c #EAEBCA",
"eX c #E9E8C5",
"rX c #F4EDC5",
"tX c #FCEBC4",
"yX c #FCE5CB",
"uX c #FDEECC",
"iX c #F5E6C7",
"pX c #FEF2C5",
"aX c #FFF9C6",
"sX c #F5F2CD",
"dX c #FEF4CC",
"fX c #FFFACD",
"gX c #FEECD4",
"hX c #FEEDDD",
"jX c #EFF5D6",
"kX c #FEF4D3",
"lX c #FEFBD4",
"zX c #FDF5D9",
"xX c #F3FBD8",
"cX c #FEFCDB",
"vX c #F5FAD5",
"bX c #ECEACF",
"nX c #FEFDE2",
"mX c #FFFEEB",
"MX c #FFF4E4",
/* pixels */
"                                                                                                                        ",
"                                                                                                                        ",
"                                                                                                                        ",
"                                                                                                                        ",
"                                                                                                                        ",
"                                                                                                                        ",
"                                                                                                                        ",
"                                                                                                                        ",
"                        O                 O                                                                             ",
"                              O     O O                                                                                 ",
"                                              O                                                                         ",
"                    . .   . .   X                                                                                       ",
"                    . . . . o . X O X     O                                                                             ",
"                o   . $ . . .     O X                                                                                   ",
"                o   5 r e 0 e 0 e ,           O                                                                         ",
"              . . $ g 6.0.3.0.) d.t     o     X                                                                         ",
"      X       $ 8 8 s -.-.-.O.{ ( e . o X     @       # = - 2 $ X X         O   @ X X X X > 6 $ -         + O           ",
"      O @ X o $ M $.i.T.K.P.I.:.a.r .   X       X # . . 6 _ 5.6     O o     + @ X X X X ; T T 6 .     O                 ",
".           * % M | y.T.P.H./.8.Q q .     X         . $ 4 1.2.4 * .                   o * p.a.< & . .                   ",
"        o > v m f.H.H.R.H.-.:.y w * .           X   e J Y M.M.@.J e $ o # o o . . . 7 L L -X<X_ v 9 .     + +       X X ",
". .     . 3 5.9.u.|.R.R.U.8.9.4 . . . .     O     . f 7.8.|.Y.r.9.l $ . . . . . $ % d s.s.zXcXc.[ h o     + +     X X X ",
". + .   . $ Y @.b./.H.i.u.d j $ . .       O O   = . g 9.-.Y.L.i.b.Y d g g f g g j d M #.w.kXlXq.` h $             X X X ",
"O O + . $ < 3.%.J.J.t.} V % % - $     O O O O   o . u 8.o.K.!.Q.R.u.>.>.*.*.2.9.2.#.#.V w.dXlXg.( q $ . .           X X ",
"O   O . $ * 3.{ m./.m.%.P $ . . .     O O O O   . . p >.o.Q.F.A.~.i.r.r.r.:.:.:.u.u.f.w.N.dXdXl.q.f . . $ .             ",
"O       . * 3.=.&XaX.XB H &   + O       O : O + . $ u >.+.!.F.G.S.S.L.P.~.P./.H.3XdXkXtXcXcXcXq.( g . . .   O O         ",
"    +   o * Q C >XpX^.S H & =       + O       . . < p :.+.S.F.G.G.D.S.!.A.L.E.I.&XdXdXvXvXeXeXc.( i . & .   o           ",
"X       . * ) 3.:XfX7X<X-XE ~ ,     O O     - % v Y 8.I.E.!.F.F.D.D.W.W.A.Q.Z.I.>XlXlXcXxXcXnX;XiXN.K v * . = O         ",
"X X       > ^ ( <XkXlXcX;XE ~   . .   .   . % $ m 2.8.Y.K.A.A.A.L.L.L.L.Q.T.H.m.1XdXvXxXxXjXmXzXnX`.( L . . .           ",
"      O + = r q z.N.#XlXiX].-X~ c c c v v v m z V :.t.T.Q.L.W.S.T.+.x | /.I.+X$X6XkXvXjXwX' ~ ;XcXB.U J $ $ =           ",
"      + + . - . v E '.cXcXcXgXa.W W ( W Q *.@.8.| o.y.K.L.A.A.Z.Y.s 1 a ^.B.tXcXcXcXnXnX9X    *XnX_.Q L $ .   O         ",
"X     O O + + . v c z.*X=XcXyX(.V.V.B.v.V.b.} -.o. .y.L.L.W.W.L.{.>.a C @XoXbXnX*X).-XmXbXG c qXcX}.Q U 0 e . #         ",
"      O O + + + .   h ' q.kXzXgXkXdXcXdXlX8X;.} o. .k.K.D.K.K.J.U.[.(.oXkXvXnXnXc $ ) hXMXmXmXzXcX_.P a.p.p.5           ",
"        O O O O #   t ~ a.yX1XzXcXiXcXdXkXuXw.=.X.X.t.I./.I.m.^.}._.`.oXkXvXwXzXK . a.gXyXzXsXdXzXXXP / _ T ; .         ",
"            O O @   = * 3 s.w.4XkXcXsXlXkXsXeXuXv.n m.pX7X7XpXtXtX6XtXrXcXeXl.` ( U 7./ s.uXdXrXcX(.Q L * $ .           ",
"                      . < Q I 2XdXcXrXvXvXsXlXcXn.B B.dX7XdXdXlXcXuXfXfXfX5X' ! P 1.m P x.uXfXcXcX(.6.K * $ o o         ",
"                  O   . w 0.I 2XcXkXvXvXcXwXc.l.oX=X Xv.C.fXdXdXdXpXdXaXfXfX$X:X:X,X:X,X=XkXrXN.N.N 2 q F F -           ",
"                +     . 2 3.&.2XcXwXcXxXcXwXE b =XcX`.i e.lXlXdXlXlXlXfXfXaXaXlXzXzXcXzXyXcXcXl.W h . 0 d.d.,           ",
"                      . < 3.4.iXlXvXvXlXvXsX].'.5XlX<X'.'.oXoX#X X X_.C..XC..X^.OX}.XXXXoX`.].E c 9 o ; k k #           ",
"                    o . 2 / ! <XkXcXsXvXlXlXrXlXkXuXzXcX<XA b A N S n n D n ....V @.&.Y / _ ' ; &         @ O O         ",
"                        3 0.&.2XlXfXfXdXfXlX6XlXzXcXkXuXiXg.g.q.q.j.j.,...;...;.%.M P / v K ~ ;     #   O +             ",
"                      . 2 3.&.1XlXpXfXfX7XaXlXtXcXzXcXzXuXlXdXtXdXuXlX%Xn ;.;.{ y 1 % $ . $ o X                         ",
"                      . 2 3.&.1XlXpX7XaXfXaXfXlXuXyXgXcXkXlXpXfXkXuXgX:X%.{ { w.y % $ $ . .                             ",
"                      . 2 3.&.1XtX`.,.,.,.<.<.j.x.x.s.0.N.uXpXtXcX`.w.B.3X4Xw.&.u $ . $                                 ",
"                      . 2 3.&.1XcXB.D n n ....! Y 6.) H x.cXlXdXdXN.C V.zX0X2.7.w . . . O     O                         ",
"                      . 2 3.&.1XlXN.B h.^.|.<.4.j f k h v N.C.8XcX_.C h.cX0X1.6.e .       O                             ",
"                      . 2 3.&.1XzXB.Z n.fXtX=.&.7 . . . * H ! 1XdXC.B v.kXyXs.a.e         O                             ",
"                      . 2 3.&.2XzXoXj.B.%X%X&.7.7 . . $ 6 a.Q =XlXC.B h.%X@XN k 5   O X   O                             ",
"                      . 2 6.1.2XcXuXkX:XC I I a.6 . $ . & [ ( 0XlXC.B =.&.Y * $ o   @ O   O O                           ",
"                        5 ] ] -XgX3XyXOX&.4./ 5.7 $ % . 5 ] T ;XzXV.Y 7.U ^ 6 . O X                                     ",
"                #     .   > > p.0.*.w.4.Y U 4 $ * . * . . 5 $ ] s.3.1.m * 5     O                                       ",
"                      = . . $ L / 3.3.1.a._ 3 $ . . $ -   o   G U 7.s.L $ &   # O                                       ",
"                  #   o o - $ 9 w q w 6 e 0 . $ . +   + o +   e w w w 7 . .                                             ",
"                  #       .     .       . o O O O +   O + +     . . . $   .   #                                         ",
"                      . .   . - o   o o     :   O : O O   @ @ O . $ .                                                   ",
"                O     . .     o     O       : O O : O         O   o     O # @                                           ",
"                          #     @ X     @   O O         + O       .                                                     ",
"                                                                          O O O                                         ",
"                                                                        O O O                                           ",
"                                                                                                                        ",
"                                                            .                                                           "
};
