/* XPM */
static char *b7dccda516e244a9d8b113d4a4c3223b9hJAJkJz03EBV88s[] = {
/* columns rows colors chars-per-pixel */
"60 60 224 2 ",
"   c #230300",
".  c #230A00",
"X  c #2D0C01",
"o  c #2D0000",
"O  c #330500",
"+  c #310B00",
"@  c #3A0D00",
"#  c #3C0F0A",
"$  c #2F1106",
"%  c #341303",
"&  c #3C1502",
"*  c #3D1905",
"=  c #34150B",
"-  c #3B160A",
";  c #36190B",
":  c #3D1C0D",
">  c #3A1C12",
",  c #3C1613",
"<  c #3D2115",
"1  c #431401",
"2  c #491403",
"3  c #441A04",
"4  c #4A1B04",
"5  c #43160A",
"6  c #431B0B",
"7  c #4B1D0B",
"8  c #551F06",
"9  c #541F0F",
"0  c #4C1F11",
"q  c #531F11",
"w  c #45210C",
"e  c #4D220D",
"r  c #4A2007",
"t  c #52230D",
"y  c #59270E",
"u  c #5E2B0F",
"i  c #562407",
"p  c #442314",
"a  c #4C2514",
"s  c #4E2915",
"d  c #43241A",
"f  c #4B2519",
"g  c #4C2A1B",
"h  c #512614",
"j  c #532914",
"k  c #5B2A13",
"l  c #512519",
"z  c #532C1B",
"x  c #5C2C1B",
"c  c #56311D",
"v  c #5D321B",
"b  c #5E3115",
"n  c #633316",
"m  c #61321B",
"M  c #642C1D",
"N  c #4B2D23",
"B  c #512F24",
"V  c #4F3129",
"C  c #543224",
"Z  c #5B3523",
"A  c #5C3925",
"S  c #55342B",
"D  c #5A342C",
"F  c #5B392C",
"G  c #5C3B33",
"H  c #613723",
"J  c #613925",
"K  c #693B25",
"L  c #623D2B",
"P  c #6C3A27",
"I  c #6A3D33",
"U  c #5E422C",
"Y  c #5F4337",
"T  c #64412D",
"R  c #6F422B",
"E  c #78452C",
"W  c #6B4432",
"Q  c #6B4934",
"!  c #654A3B",
"~  c #654834",
"^  c #794B32",
"/  c #7C4A3B",
"(  c #764532",
")  c #734F43",
"_  c #785044",
"`  c #834D34",
"'  c #8B4F31",
"]  c #804330",
"[  c #8C5435",
"{  c #85543D",
"}  c #8D553B",
"|  c #8E593D",
" . c #875538",
".. c #945535",
"X. c #9A5635",
"o. c #955936",
"O. c #9A5936",
"+. c #94563A",
"@. c #99573B",
"#. c #955A3C",
"$. c #9B5C3C",
"%. c #8D4D2A",
"&. c #A15D3E",
"*. c #A05B37",
"=. c #8E603F",
"-. c #95613E",
";. c #9D613E",
":. c #A1613E",
">. c #845544",
",. c #8D5642",
"<. c #865C45",
"1. c #8C5C45",
"2. c #855D4A",
"3. c #8D5D4A",
"4. c #815749",
"5. c #945742",
"6. c #945D43",
"7. c #9B5D41",
"8. c #905648",
"9. c #945C4B",
"0. c #995E4D",
"q. c #985640",
"w. c #935D51",
"e. c #825B56",
"r. c #A15E43",
"t. c #8F6141",
"y. c #8D614B",
"u. c #946143",
"i. c #9B6144",
"p. c #94624A",
"a. c #9B644B",
"s. c #9B684C",
"d. c #8D6352",
"f. c #8B645A",
"g. c #946552",
"h. c #9B6451",
"j. c #946B54",
"k. c #9B6A53",
"l. c #936C5B",
"z. c #9C715E",
"x. c #A36444",
"c. c #A66946",
"v. c #A86946",
"b. c #A36549",
"n. c #A8664A",
"m. c #A46A4B",
"M. c #AA6B4B",
"N. c #AB6647",
"B. c #B36E4F",
"V. c #AD714E",
"C. c #B1714E",
"Z. c #A26554",
"A. c #A26B54",
"S. c #AE6D52",
"D. c #AC6D52",
"F. c #A86C59",
"G. c #AE7253",
"H. c #A3755C",
"J. c #AD7259",
"K. c #AF795F",
"L. c #B37455",
"P. c #B57855",
"I. c #B37659",
"U. c #B6795B",
"Y. c #BA7B5C",
"T. c #B8775B",
"R. c #966D64",
"E. c #967063",
"W. c #A57462",
"Q. c #A57A65",
"!. c #AC7C63",
"~. c #A57B6C",
"^. c #A87C69",
"/. c #A17769",
"(. c #B17C63",
"). c #B87962",
"_. c #AC816B",
"`. c #A6816F",
"'. c #B2836B",
"]. c #BB856B",
"[. c #B38A6E",
"{. c #BE8A6E",
"}. c #BE8162",
"|. c #A78576",
" X c #AD8C7C",
".X c #AC8674",
"XX c #B38674",
"oX c #B58B74",
"OX c #BA8C74",
"+X c #B48D7A",
"@X c #BA8D7B",
"#X c #BD9175",
"$X c #B7917A",
"%X c #BC927C",
"&X c #BA9478",
"*X c #C28D6D",
"=X c #C18B6D",
"-X c #C68867",
";X c #C1906F",
":X c #C28D72",
">X c #CA8E72",
",X c #C49275",
"<X c #C89275",
"1X c #C69977",
"2X c #C3937B",
"3X c #C9937A",
"4X c #CA997D",
"5X c #B78F83",
"6X c #B59382",
"7X c #BB9381",
"8X c #BB9889",
"9X c #BB9E90",
"0X c #C39581",
"qX c #C49A83",
"wX c #C49A8B",
"eX c #CA9B85",
"rX c #D09A80",
"tX c #C19E95",
"yX c #C3A28D",
"uX c #CAA188",
"iX c #CDA083",
"pX c #C3A294",
"aX c #CBA796",
"sX c #D2A494",
/* pixels */
",X;Xi.[ i...o.x.L.m.#.1.t.e 3 oX{.#.7.7.@.7.@.+.D.J.s.6.1 4 +X#Xi.:.L.M.o.7.#.6.#.6.6.8 2 =X<X6.6.6.7.#.o.$.7.6.9.3.l + ",
",X*X-.[ i.o.;.m.M.a.| 1.1.e 3 oX:X6.7.7.@.7.$.@.D.I.A.6.1 4 +XOXi.:.P.M.#.$.#.6.#.6.6.8 2 =X<X6.6.#.7.b.i.@.@.7.9.3.l + ",
",X*X#.[ x.;.x.M.7.7.#.1.1.r 3 oX<X6.7.7.@.7.$.$.D.I.m.p.3 4 +X#X6.&.T.M.#.$.#.6.#.6.6.8 1 :X<X6.6.+.7.D.M.#.+.7.6.3.l + ",
"<X*X-.#.M.x.x.v.o.#.#.u.1.4 3 OX3X6.$.7.@.$.$.7.n.D.s.p.4 4 +X#X6.&.T.D.o.$.#.6.#.6.6.8 1 :X<X6.6.@.7.M.D.x.7.7.6.3.h + ",
"<X*Xi.$.L.n.x.x.@.$.7.a.1.4 1 OX3X#.#.i.$.$.@.7.7.b.6.u.4 4 +X#X6.$.L.M.o.$.#.#.#.6.6.8 1 OX<X6.@.7.$.$.n.L.n.+.6.3.h + ",
"<X*Xi.i.P.v.$.@.$.7.7.a.6.4 1 oX<X#.7.n.7.7.@.7.@.7.6.6.4 3 +X%X6.$.M.x.o.i.$.#.#.6.6.8 1 OX2X9.@.7.@...r.L.M.+.6.3.h + ",
"<X=Xi.i.U.M.r.@.$.$.#.9.6.7 1 oX<X#.i.D.n.x.@.$.@.7.6.p.4 3 oX%Xi...x.7.o.x.7.#.#.6.6.8 1 OX2X9.6.7.$.@.$.n.b.6.6.3.h + ",
"<X=X7.7.P.M.r.$.@.@.#.6.9.t 3 oX<X6.b.I.D.n.$.7.$.7.6.p.7 3 oX%Xi...x.$.@.x.7.#.#.6.6.t 1 @X0X3.9.q.7.7.$.@.#.i.6.3.h X ",
"3X*X7.7.L.M.r.7.$.b.6.} 1.x e _.<X6.x.G.M.b.@.@.$.6.6.1.t 1 +X#Xi.#.o.$.$.$.$.#.i.6.6.y @ XX7X3.0.b.6.+.7.7.7.s.` k.6 % ",
"].=Xa.7.n.@.@.7.7.#.#.p.,.& @ @X<X6.x.L.M.x.@.$.$.6.6.1.t 1 +X#Xu.#.o.$.$.x.n.7.' } 6.k 7 wX5XI P ,.0.9.a.6.E u ,.Q.w X ",
"4X<Xu.} b.7.$.x.7.[ [ s.g.e 3 2X<X#.x.I.M.r.+.$.7.6.6.1.t 1 +X#Xu.+.$.$...v.L.x.#.s.p.4 % .XR.@ 7 ` 9.} 1.} k o >./.g X ",
"1X:X6.[ b.#.o.7.#.6.6.9.p.h 3 _.<X#.i.I.D.r.@.7.$.6.6.1.t 1 +X#Xa.+.$.$...M.T.x.#.i.9.5 0 8XpXf.d.XXXXW.!.'.p.P z.~.C = ",
"OX{.u.6.m.#.#.i.a.a.6.3.<.7 * oX<X#.i.G.M.b.$.7.$.6.6.1.t 1 +X#Xp.#.$.$.O.M.C.$...} 9.e l |.tX5XtXaXwX7XeXeX@XXX~.l.g = ",
"iX!.n u [ 6.6.#.i.n 4 R y.a * %X,X6.7.m.n.D.x.$.$.6.6.1.t 1 +X#Xp.6.#.$.v.v.x.$.o.| s.7 + g S S N g a z H x e h L C = ; ",
"iXH.i i [ s.s.6.7.k 1 R j.s % .X:X6.$.7.x.T.M.@.$.6.u.1.t 1 +X#X6.i.@.7.T.v...x.o.} h.7 + = = = $ $ + % 6 % X % X % X > ",
"%XuXoXOXeXOXOX2X2X@X%X0X.Xc : +XOXi.#.@.r.).L.@.$.6.u.1.t & +X%X1.a...i.-XM.%.x.7.| p.4 & f g N N C g a z s a c a g d = ",
".X X6X X6X6X|. X X X6X9X Xz - +X<Xi.#.#.x.U.M.@.7.6.u.1.t & +X%Xt.#.+.x.C.x.O.;.i.{ y.s % L A w c Z z z H v j j j A ; X ",
"p : > ; ; > > < $ > = X : X : +X,X#.#.o.i.L.v...$.6.u.1.t & +X%X1.-.o.o.*.O.o.#.6.p.d.3 & j.<.3 h >.p.{ ,.<.m O 3 z % X ",
"- % % = % = : = = p %   - % p oX,X#.#.#.i.L.v.o.$.6.u.1.t & +X%X1.u.;.o.X.O.O.o.#.p.p.1 6 _.H.b k 3.k.{ 1.g.E 3 H T : $ ",
"a a z A z g C g p g a g A % * oX<Xu.#.$.i.L.v.$.$.6.u.1.t & +X%X1.#.$.$.O.*.&.$.6.,.3.7 4 k.H.{ ,.p.1.{ 6.p.1.1.<.2.g X ",
"L L z z s a L A Z J J L T + & %X,Xu.#.$.$.M.n.7.$.6.u.1.t & +X%Xk.[ @.&.*.X.&.$.Z.8.3.7 4 k.!.s.k.p.| 6.s.#.} a.y.<.a X ",
"Q.z.v h v H <.y.g.j.g.y.2.a 7 XX,X#.#.#.o.x.7.$.7.6.u.1.t & +X7Xh.[ $.x.@.@.r.q.8.h.g.2 2 ].:X6.} 6.#.} #.#.[ #.1.<.a + ",
"'.Q.7 1 E ^ t.p.1.E K { g.j 1 '.,X#.#.#...$.$.o.$.6.u.1.t & +X7XK ^ A.m.+.7.b.] M 3.W.4 2 :X4X} #.a.i...$.x.a.m.u.1.j % ",
"H.H.1 4 u.p.6.| A.i O P p.4 @ 0X<X#.#.$...$.$.o.$.6.u.1.t & +X7X  x A.F.[ 7.9.k O / ~.h 1 '.<X#.[ o.o.$.;...' #.6.| r X ",
"OX!.` E #.#.6.} [ ` E { 3.j 4 '.:Xu.#.#.o.$...$.7.6.u.3.7 X 6X6X2.j._.oX'.(.W.g.4.E.+Xc % 2X,Xi.@.$.$.O.O.$.$.[ u.1.e + ",
"rX:X6.[ i.7.i.o.i.6.#.6.p.h 4 oX:Xu.#.#.$.$...7.+.} 6.p.k a 6XyXpXyXyXqXqXuXsXaXaXaX9XF & OX{.#.o.O.$.O.O.$.&.$.i.1.a + ",
"rX<Xa.#.7.o.$.o.$.i.i.s.3.7 3 OX:X#.+.#.7.x.o.7.i.6.6.1.4 + A ~ ! ~ U T Q W T Q ! ! Y ; & [.1X-.$.$.O.O.$.$.x.M.i.1.a + ",
"<X{.i.+.$...$.O...#.6.p.1.4 3 @X,X#.[ o.$.x.@.$.#.#.6.p.e + + % . . . X & +   . . X X X w [.1X+.$.X.X.$.$.O.x.U.i.1.a + ",
":X=Xa.o.$.o.$.$.o.#.#.p.p.a 6 @X,Xu.[ o.$.$...$.+.#.6.p.h * * : N g p p f a g C N N d % 7 '.1X#.$.$.$.$.$.$.n.U.s.3.a X ",
"3X:Xs.#.$...O.O.$.$.#.p.p.a 6 +X,Xu.#.o.o.$.$.x.b.6.| ,.4 + A T g N D D f f D B d V D - & ].<X$.&.r.&.O.X.@.n.U.s.3.a X ",
"3X:Xi.@.$...O...$.#.6.9.3.7 - XX:Xi.#.#.o.$.i.G.x.6.| 1.t 3 `.|.= d ) _ l B D , , G e.f 1 :X-X..x.v.v.$...$.M.I.h.3.f X ",
"3X:Xi.#.x.$.:.$.o.$.6.p.3.0 6 @XOXi.#.$.o.7.x.Y.b.6.6.1.e + 6X+X: z d.3.h x I 5 # I R.h @ 3X>Xx.x.B.L.7...$.M.J.s.y.a X ",
"3X=X7.i.L.v.$.O.$.#.6.p.3.7 5 @XOX#.#.i.$.$.7.T.b.6.6.1.a &  X6X3.{ a.#.[ 6.#.,.8.w.3.q 1 OX<X#.#.U.M.o.x.$.[ i.6.1.a X ",
"<X=X7.i.L.v.$.O.$.#.} 9.3.0 5 +XOX6.#.7.@.@.r.Y.n.9.6.1.a &  X$Xp.#.m.i...;.$.#.6.9.8.9 1 OX,Xu.#.U.M.o.:.$...i.6.1.h + ",
"<X=X7.i.L.v.;.O.$.$.#.6.9.h 6 XX:Xu.#.o...$.r.T.b.6.6.1.a * +X%Xp.7.J.m.o.;.$.7.5.9.8.9 1 OX,Xt.7.U.M...$.$.o.7.6.1.h + ",
"<X=X7.i.L.M.;.O.7.i.7.a.9.a 5 +X<Xi.o.o.$.x.x.D.r.5.6.1.h & +X7X9.i.I.M.o.$.o.7.5.9.8.9 1 OX,Xt.i.P.V.o.o.$.$.#.6.1.h + ",
"<X=X7.i.L.v.;.O.$.m.F.A.3.7 5 @X<Xi...o.x.L.x.x.7.@.6.1.h & +X%X9.i.U.M.o.$.o.$.5.9.8.9 1 OX,Xt.i.G.M.$.O.$.$.#.6.1.s + ",
"<X=X7.i.L.v.;.O.$.D.J.A.3.7 5 @X:Xi.o.o.c.L.x.$.7.@.6.6.t 1 +X%Xp.i.U.V.$.;.$.7.5.9.8.9 1 OX,Xt.i.x.M.m.;.$.$.#.6.1.s X ",
"<X{.7.i.L.v.$.O.@.M.J.A.3.0 5 @X=Xi.o.o.x.L.x.o.$.#.6.6.t 1 oX2Xa.i.I.M.$.;.$.7.5.9.8.9 1 OX,Xt.7.o.c.L.c.o.o.6.6.1.a X ",
"<X=X7.i.L.v.$.O...b.A.h.3.h 6 XX].i.$...o.M.x.$.#.#.6.6.i 1 OX2Xp.6.G.m.o.;.$.7.5.0.8.9 1 OX,Xt.6...x.U.M.o.o.7.6.<.a X ",
":X<X#.$.}.v...x.$.@.[ 6.g.h 5 XX:X6.[ o.i.$.[ i.#.#.#.6.k 1 XX2Xa.i.L.P.$...$.7.5.0.8.9 1 OX,Xt.} $.m.M.x.o.o.i.6.<.s X ",
"<X<X#.$.Y.v...$.$.i.a.6.>.6 5 +X:Xm.s.i.| 6.#.#.i.u.6.` 1 1 %X@Xp.6.b.M.x.$.$.#.5.9.8.9 1 OX,Xt.#.o.;.x.v.c.i.#.6.<.a + ",
"<X<X#.$.Y.v.O.$...x.a.9.<.0 7 @X2X} } a.6.u.u.#.u. .u.p.7 1 0X@X6.6.o.i.V.c.$.#.5.0.8.9 1 OX,Xt.#.o.o.$.v.L.m.#.6.1.h + ",
"<X*X6.$.U.M.:.$.$.#.6.p.g.l 6 XX2Xy y 6.p.6.| u.n 4 ^ H.v @ @X0X6.i.+.$.P.V.$.7.5.0.8.9 1 OX,Xt.#.o.o.o.x.P.M.[ 6.1.h + ",
"3X{.6.$.G.x.:.O.x.#.} a.9.5 @ +XoXt k p.g.p.y.p.b 4 ^ H.j O oX0X6.i.o.$.V.c.o.7.5.9.8.9 1 OX,Xt.#.$.$.o.:.V.m.} 6.1.h + ",
"3X=Xi.o.i.$.$...7.7.6.h.3.5 5 wXsXQ.oX2XoX%X4X%XoX_.oX^.j & %X@X6.6.#.$.x.$.o.7.5.9.8.9 1 OX,Xt.#.$.$.o.$.x.i.#.6.1.j + ",
"<X{.a.o.$.$.x.$...7.7.9.9.l 5 /.7XoXqX%X_.oXoXoX%XoX^.d.a 7 7X@X9.#.#.$.o.o.$.#.5.9.8.9 1 OX,Xt.#.o.$.#.$.o.o.#.6.3.j + ",
":X].s.$.$.$.C.M...7.6.} p.x   z 6 + * 5 6 6 & w w % & s & % oX0Xh.[ #.i...o.i.#.5.0.8.9 1 OX,Xt.#...o.$.$.+.@.#.6.<.s X ",
":X:Xs.+.$.x.C.M.$.7.6.1.3.e @ - = % = % ; > X p % % - w X * 8X%Xp.6.+.#.$.$.o.#.6.h.9.9 1 OX2Xu.#.$.$.$.;.;.7.#.6.1.h + ",
"<X:Xs...7.x.M.M.@.o.6.6.p.e @ a S S G N d V N N S N g C & * $X[.p.#.#.#.$.$.o.#.9.0.8.9 1 OX2Xt.#.o.o.o.$.$.$.6.6.1.h + ",
"<X:Xa...$.$.v.v.x.o.6.6.g.7 & W A : g C B G F F S f a Z & * $X#Xp.#.#.#.$.o.o.7.6.0.8.9 1 OX,X=.#.o.o.o...o.$.7.6.3.j X ",
"3X:Xi.+.$.$.x.x.L.7.6.1.p.4 3 l.l.e z 2.l.f.f.R.a & 5 c & & $X2Xp.6.o.#.$.o.$.7.0.0.8.9 1 OX,X| #.o.o.$.$.o.o.7.6.<.s + ",
"3X:Xi.+.$...x.:.Y.i.6.} 9.5 & ~.Q.y m 3.y.3.>.d.W Z H W 7 & oX#Xp.6.#.#.o.o.$.i.b.0.8.9 1 OX#Xt.#.o.;.x.x.$.o.6.6.1.j + ",
"3X=Xi.o.7...$.:.P.7.i.} p.7 + ^.!.} 6.p.1.p.9.9.g.3.3.3.j 3 oX@Xp.6.#.$.$.o.$.b.F.h.8.9 2 OX#Xu.#.$.x.V.v.;.o.6.6.1.j X ",
"3X{.i.#.7...$.x.L.7.s.[ k.h + _.(.m.b.#.6.F.a.9.9.p.h.3.t 3 %X#Xp.6.#.$.o.o.$.b.).Z.8.9 1 oX#Xu.#.$.c.G.M.$.o.7.6.1.h + ",
"3X{.i.#.i...$.x.Y.x.s.` g.j & @X:Xn.....D.Y.7.6.[ 9.h.,.4 & @X@X6.6.#.$.o.o.$.m.).F.8.9 1 oX#Xu.#.$.x.G.M.$.@.i.6.1.h X ",
"3X:Xi.#.7.o.$.O.$.$.#.p.p.a 5 OX>X$...O.x.L.M.@.7.6.9.1.t 1 +X%Xp.i.$.+.$.x.M.n.9.0.9.9 1 OX2Xu.#...$.o.x.P.x.#.6.1.h + ",
"3X:Xi.#.7.o.$.O.$.$.#.p.p.e 5 OX>XO.X.O.&.B.N.@.$.6.9.1.t 1 +X%X6.i.$.o.$.x.c.b.9.0.9.9 1 OX2Xu.#...$.o.x.P.x.#.6.1.h + ",
"3X:Xi.#.7.o.$.O.$.$.#.p.p.a 5 OX:X$.$.$.*.N.r.@.$.#.6.1.t 1 +X%X6.6.$.o.$.;.i.7.6.0.9.9 1 OX2Xu.6...$.o.x.P.x.#.6.<.h + ",
"3X:Xi.#.7.o.$.O.$.$.#.p.p.e 5 OX*X$.O.$.X.&.*.$.$.#.6.1.t 1 +X%X6.6.#.#.$.$.$.#.6.0.9.9 1 OX2Xu.6...$.o.x.P.x.#.6.<.a + "
};
